<?xml version="1.0" encoding="UTF-8"?>
<!-- Generator: Adobe Illustrator 27.7.0, SVG Export Plug-In . SVG Version: 6.00 Build 0)  -->
<svg xmlns="http://www.w3.org/2000/svg" xmlns:xlink="http://www.w3.org/1999/xlink" version="1.1" id="Capa_1" x="0px" y="0px" viewBox="0 0 1200 1200" style="enable-background:new 0 0 1200 1200;" xml:space="preserve">
<style type="text/css">
	.st0{fill-rule:evenodd;clip-rule:evenodd;fill:#333333;}
	.st1{fill-rule:evenodd;clip-rule:evenodd;fill:#041D33;}
	.st2{fill-rule:evenodd;clip-rule:evenodd;fill:#25232B;}
	.st3{fill-rule:evenodd;clip-rule:evenodd;fill:#D0DBDF;}
	.st4{fill-rule:evenodd;clip-rule:evenodd;fill:#08355C;}
	.st5{fill-rule:evenodd;clip-rule:evenodd;fill:#33303B;}
	.st6{fill-rule:evenodd;clip-rule:evenodd;fill:#C8D1E0;}
	.st7{fill-rule:evenodd;clip-rule:evenodd;fill:#BAC2D1;}
	.st8{fill-rule:evenodd;clip-rule:evenodd;fill:#F0F4FA;}
	.st9{fill-rule:evenodd;clip-rule:evenodd;fill:#828994;}
	.st10{fill-rule:evenodd;clip-rule:evenodd;fill:#98A0AD;}
	.st11{fill-rule:evenodd;clip-rule:evenodd;fill:#F0C17D;}
	.st12{fill-rule:evenodd;clip-rule:evenodd;fill:#322333;}
	.st13{fill-rule:evenodd;clip-rule:evenodd;fill:#FFDBA7;}
	.st14{fill-rule:evenodd;clip-rule:evenodd;fill:#473148;}
	.st15{fill-rule:evenodd;clip-rule:evenodd;fill:#191819;}
	.st16{fill-rule:evenodd;clip-rule:evenodd;fill:#ECF3F6;}
	.st17{fill-rule:evenodd;clip-rule:evenodd;fill:#C2C2C0;}
	.st18{fill-rule:evenodd;clip-rule:evenodd;fill:#8A8C8B;}
	.st19{fill-rule:evenodd;clip-rule:evenodd;fill:#787878;}
	.st20{fill-rule:evenodd;clip-rule:evenodd;fill:#A1A3A2;}
	.st21{fill-rule:evenodd;clip-rule:evenodd;fill:#484D4B;}
	.st22{fill-rule:evenodd;clip-rule:evenodd;fill:#9DAFB0;}
	.st23{fill-rule:evenodd;clip-rule:evenodd;fill:#0068FF;}
	.st24{fill-rule:evenodd;clip-rule:evenodd;fill:#331202;}
	.st25{fill-rule:evenodd;clip-rule:evenodd;fill:#0660CC;}
	.st26{fill-rule:evenodd;clip-rule:evenodd;fill:#042542;}
	.st27{fill-rule:evenodd;clip-rule:evenodd;fill:#DD0B88;}
	.st28{fill-rule:evenodd;clip-rule:evenodd;fill:#FF008B;}
	.st29{fill-rule:evenodd;clip-rule:evenodd;fill:#07519B;}
	.st30{fill-rule:evenodd;clip-rule:evenodd;fill:#121314;}
</style>
<g>
	<path class="st0" d="M635.6,270l544.6,351.2c18,11.4,18,39.8-0.1,51.2l-560.8,352.8c-8.4,5.3-18.8,5.3-27.2,0l-569-367.6   c-18-11.4-18-39.8,0.1-51.2l585.2-336.4C616.8,264.6,627.1,264.6,635.6,270z"></path>
</g>
<g>
	<g>
		<g>
			<g>
				<g>
					<path class="st1" d="M614,807.8l20.3,15.5c-0.2,18.7-0.2,27.8-7.4,32.7c-8.8,5.9-23.6,1.1-32.6-3l-2.4-7.2       c-8.6-1.2-6.7,1.4-16-3.8c-15.6-8.7-38.6-22.1-41.7-37.6c-0.8-4,2.3-11.1,6.3-10.4l45.3,7.9L614,807.8z"></path>
					<path class="st2" d="M643.1,687.1l-7.4,142.7l0,0.1c0.1,1.2-0.3,2.1-1.3,2.7c-4.8,2.8-20.6-1.9-35.3-10.4       c-6.1-3.5-11.1-7.2-14.4-10.4c-1.8-1.2-3.6-2.4-5.4-3.7L571,651L643.1,687.1z"></path>
				</g>
				<path class="st3" d="M632.4,848.1c-0.9,3.3-2.6,5.9-5.2,7.8c-8.5,6.3-23.9,1.4-33.2-2.8l-2.4-7c-12.3-1.2-8.9,0.7-21.4-5.8      c-15.1-7.8-33.5-18.9-36.9-32.6c-0.7-2.8,0.5-7.4,2.8-9.5c-0.3,1.5-0.3,2.9-0.1,4.1c3.3,13.7,21.7,24.8,36.9,32.6      c12.5,6.5,9.1,4.6,21.4,5.8l2.7,7.1c9.1,3.7,24.5,8.9,33,2.6C631,849.6,631.8,848.9,632.4,848.1z"></path>
				<g>
					<path class="st4" d="M564.9,836l20.9,14.6c0.5,18.7,1,27.8-6,33c-8.5,6.3-23.6,2.1-32.7-1.6l-2.7-7.1       c-12.3-1.2-8.9,0.7-21.4-5.8c-15.1-7.8-33.5-18.9-36.9-32.6c-1-3.9,1.8-11.2,5.8-10.7l44.5,5.4L564.9,836z"></path>
					<path class="st5" d="M594.8,679.2c-0.9,12.9-1.7,25.7-2.1,38.6l-4.3,140.5l-0.2-0.1c-0.1,0.8-0.5,1.5-1.4,2       c-4.8,2.8-20.6-1.9-35.3-10.4c-14.1-8.1-22.1-16.9-18.6-20.1l-0.8-153.7C531.5,644.5,594.2,651.1,594.8,679.2z"></path>
				</g>
			</g>
			<g>
				<g>
					<path class="st6" d="M592.8,890.4c0,0.3,0,0.5,0.1,0.8c0,0,0,0.1,0,0.1c0.1,0.2,0.2,0.5,0.3,0.7c0,0,0.1,0.1,0.1,0.1       c0.2,0.2,0.4,0.4,0.6,0.6c0.1,0.1,0.3,0.3,0.5,0.4c0.2,0.1,0.3,0.2,0.5,0.3l57.9,33.7l0,9.3L595,902.7c0,0-0.1,0-0.1-0.1       c-0.1-0.1-0.2-0.2-0.4-0.3c-0.2-0.1-0.4-0.2-0.5-0.4c0,0,0,0,0,0c-0.2-0.2-0.3-0.3-0.5-0.5c0,0-0.1-0.1-0.1-0.1       c0,0-0.1-0.1-0.1-0.1c0-0.1-0.1-0.1-0.1-0.2c-0.1-0.1-0.1-0.3-0.2-0.4c0,0,0,0,0-0.1c0,0,0-0.1,0-0.1c0-0.1-0.1-0.2-0.1-0.3       c0-0.1,0-0.3,0-0.4c0,0,0,0,0-0.1v0L592.8,890.4z"></path>
					<path class="st7" d="M655.1,927.9c0.1,0,0.2,0.1,0.4,0.1c0.8,0.2,1.7,0.3,2.5,0.3c0,0,0.1,0,0.1,0c0.9,0,1.8-0.1,2.7-0.3       c0,0,0.1,0,0.1,0c0.9-0.2,1.7-0.5,2.4-0.9l67.2-38.8c1.4-0.8,2.2-1.9,2.2-3l0,9.3c0,1.1-0.7,2.2-2.2,3l-67.2,38.8       c-0.3,0.2-0.7,0.4-1.1,0.5c-0.3,0.1-0.6,0.2-0.9,0.3c-0.1,0-0.3,0.1-0.4,0.1c0,0-0.1,0-0.1,0c-0.1,0-0.1,0-0.2,0.1       c-0.2,0-0.5,0.1-0.7,0.1c-0.2,0-0.5,0.1-0.7,0.1c-0.2,0-0.5,0-0.7,0c-0.1,0-0.2,0-0.3,0c0,0-0.1,0-0.1,0c-0.1,0-0.2,0-0.4,0       c-0.3,0-0.5,0-0.8-0.1c-0.3,0-0.6-0.1-0.9-0.1c-0.1,0-0.3-0.1-0.4-0.1c-0.1,0-0.2-0.1-0.4-0.1c-0.2-0.1-0.4-0.1-0.6-0.2       c-0.6-0.2-1.1-0.4-1.6-0.7l0-9.3C653.6,927.4,654.3,927.7,655.1,927.9z"></path>
					<path class="st8" d="M595,887.4c-2.9,1.7-2.9,4.4,0,6l57.9,33.7c2.8,1.7,7.5,1.7,10.4,0l67.2-38.8c2.9-1.6,2.9-4.4,0-6       l-57.9-33.7c-2.8-1.7-7.5-1.7-10.4,0L595,887.4z"></path>
				</g>
				<g>
					<polygon class="st1" points="662.5,731.3 660.4,776.6 662.7,897.3 674.6,890.4 674.5,724.4      "></polygon>
					<polygon class="st4" points="662.5,731.3 650.8,724.5 651,890.5 662.7,897.3      "></polygon>
				</g>
				<g>
					<path class="st1" d="M608,723.7l98.5,56.9c1.2,0.7,2.4,1.2,3.5,1.6c0.2,0.1,0.4,0.2,0.7,0.2c1.1,0.3,2.1,0.6,3.1,0.7       c0.1,0,0.2,0,0.3,0c1.1,0.1,2.1,0,3-0.2c0.1,0,0.1,0,0.2,0c1-0.2,1.9-0.6,2.7-1c0,0,0,0,0,0h0c0,0,0,0,0,0l-10.2,5.9       c0,0-0.1,0-0.1,0.1c-0.3,0.2-0.6,0.3-1,0.5c-0.3,0.1-0.7,0.3-1,0.4c-0.2,0.1-0.4,0.1-0.7,0.2c-0.1,0-0.1,0-0.2,0       c-0.1,0-0.2,0-0.2,0.1c-0.4,0.1-0.8,0.1-1.1,0.1c-0.4,0-0.8,0-1.3,0c-0.1,0-0.3,0-0.4,0c-0.1,0-0.2,0-0.3,0       c-0.2,0-0.5,0-0.7-0.1c-0.5-0.1-1.1-0.2-1.7-0.4c-0.2-0.1-0.5-0.2-0.7-0.2c-0.2-0.1-0.4-0.1-0.7-0.2c-0.3-0.1-0.6-0.2-0.9-0.3       c-0.9-0.4-1.7-0.8-2.6-1.3l-98.5-56.9L608,723.7z"></path>
					<path class="st4" d="M597.7,729.7l98.5,56.9c10.5,6,19,1.2,19-10.8l0.3-106.3l6.8,3.9l-0.3,106.3c0,16.4-11.7,23-25.9,14.8       l-98.5-56.9L597.7,729.7z"></path>
				</g>
				<g>
					<path class="st6" d="M555.2,733.9c0,0.4,0.1,0.8,0.2,1.2c0,0,0,0.1,0,0.1c0.1,0.4,0.3,0.7,0.5,1c0,0.1,0.1,0.1,0.1,0.2       c0.2,0.3,0.5,0.7,0.9,1c0.2,0.2,0.5,0.4,0.8,0.6c0.2,0.2,0.4,0.3,0.7,0.5l89.1,51.8l1.8,6.1l-1.8,8.2l-89.1-51.8       c0,0-0.1-0.1-0.1-0.1c-0.2-0.1-0.4-0.3-0.6-0.4c-0.3-0.2-0.6-0.4-0.8-0.6c0,0-0.1,0-0.1-0.1c-0.3-0.2-0.5-0.5-0.7-0.8       c0-0.1-0.1-0.1-0.1-0.2c0-0.1-0.1-0.1-0.1-0.2c-0.1-0.1-0.1-0.2-0.2-0.3c-0.1-0.2-0.2-0.4-0.3-0.6c0,0,0-0.1,0-0.1       c0,0,0-0.1,0-0.1c0-0.1-0.1-0.3-0.1-0.4c0-0.2-0.1-0.4-0.1-0.7c0,0,0-0.1,0-0.1v0L555.2,733.9z"></path>
					<path class="st7" d="M651,791.6c0.2,0.1,0.4,0.1,0.5,0.1c1.3,0.3,2.6,0.4,3.9,0.4c0.1,0,0.1,0,0.2,0c1.4,0,2.8-0.2,4.1-0.5       c0.1,0,0.1,0,0.2,0c1.3-0.3,2.6-0.8,3.7-1.4l103.3-59.7c2.2-1.3,3.3-3,3.3-4.7l0,14.3c0,1.7-1.1,3.4-3.3,4.7l-103.3,59.6       c-0.5,0.3-1,0.6-1.6,0.8c-0.4,0.2-0.9,0.3-1.4,0.5c-0.2,0.1-0.5,0.1-0.7,0.2c-0.1,0-0.1,0-0.1,0c-0.1,0-0.2,0.1-0.3,0.1       c-0.4,0.1-0.7,0.1-1.1,0.2c-0.4,0.1-0.7,0.1-1.1,0.1c-0.4,0-0.7,0-1.1,0.1c-0.1,0-0.3,0-0.4,0c-0.1,0-0.1,0-0.1,0       c-0.2,0-0.4,0-0.6,0c-0.4,0-0.8,0-1.3-0.1c-0.5,0-1-0.1-1.4-0.2c-0.2,0-0.4-0.1-0.6-0.2c-0.2,0-0.4-0.1-0.5-0.1       c-0.3-0.1-0.7-0.1-1-0.2c-0.9-0.3-1.7-0.6-2.5-1.1l0-14.3C648.6,790.8,649.8,791.3,651,791.6z"></path>
					<path class="st8" d="M558.5,729.2c-4.4,2.6-4.4,6.7-0.1,9.2l89.1,51.8c4.4,2.5,11.5,2.6,16,0l103.3-59.7       c4.4-2.5,4.4-6.7,0.1-9.2l-89.1-51.8c-4.4-2.5-11.6-2.5-16,0L558.5,729.2z"></path>
				</g>
			</g>
			<path class="st2" d="M677.5,747.4c-27.3-6.2-48.2-35.1-79.9-57.7l-28-14.3c-1.9-29,0.3-38.4,13.7-43c25.3-8.7,68.7,14,101.8,30.2     L677.5,747.4z"></path>
			<path class="st5" d="M728.3,670.7l17.6,9.6c6.3,28.6,2.7,48.9-10.4,62.7c-19,19.9-58.4,34.7-95.1,26.3     c-27.3-6.2-48.2-35.1-79.9-57.7l-28-14.3c-1.9-29,0.3-38.4,13.7-43c25.3-8.7,68.7,14,101.8,30.2L728.3,670.7z"></path>
		</g>
		<path class="st3" d="M584.9,875.9c-0.9,3.3-2.5,5.8-5.1,7.7c-8.5,6.3-23.6,2.1-32.7-1.6l-2.7-7.1c-12.3-1.2-8.9,0.7-21.4-5.8    c-15.1-7.8-33.5-18.9-36.8-32.6c-0.7-2.8,0.5-7.4,2.8-9.5c-0.3,1.5-0.3,2.9-0.1,4.1c3.3,13.7,21.7,24.8,36.8,32.6    c12.5,6.5,9.1,4.6,21.4,5.8l2.7,7.1c9.1,3.7,24.2,7.9,32.7,1.6C583.4,877.5,584.2,876.7,584.9,875.9z"></path>
	</g>
	<g>
		<g>
			<g>
				<polygon class="st9" points="752.9,230.5 753.4,435.9 775.7,448.9 775.3,230.5     "></polygon>
				<polygon class="st10" points="775.3,230.5 775.7,448.9 797.5,436.3 797.1,230.5     "></polygon>
			</g>
			<g>
				<polygon class="st4" points="234.1,543.8 234.5,749.2 245.8,754.8 245.3,536.4     "></polygon>
				<polygon class="st1" points="245.3,536.4 245.8,754.8 267.6,742.2 267.2,536.4     "></polygon>
			</g>
		</g>
		<g>
			<g>
				<polygon class="st9" points="974.7,387.8 975,566.2 997.4,579.2 997,387.8     "></polygon>
				<polygon class="st10" points="997,387.8 997.4,579.2 1019.2,566.6 1018.9,387.8     "></polygon>
			</g>
			<g>
				<polygon class="st4" points="466.9,608.6 455.6,603 456.2,879.5 467.5,885.1     "></polygon>
				<polygon class="st1" points="466.9,608.6 467.5,885.1 489.3,872.5 488.7,596     "></polygon>
			</g>
		</g>
	</g>
	<g>
		<g>
			<path class="st11" d="M875.8,485.4c0,0.9,0,1.8,0,2.7c-1.5,34.6,3,68.4,3.6,104.1c-2.7,25.4-6.8,43.5-13.9,50.5     c-1.3,1.3-3.5,3.8-8,2.3c-0.5-0.2-0.8,0.6-1.1,1l17.2,13.7l27.2-52.4c0.4-2.6,2.3-4.9,1.3-7.3c-0.8-2-3.4-6.3-2.6-11     c7-40,14.2-69.4,13.2-95.7c-0.4-10.1-0.7-18.2-0.8-24.9L875.8,485.4z"></path>
			<path class="st12" d="M874.5,637.5c3.9-9.4,7.6-18.1,11.6-25.3c1.8-3.2,4.7-13.9,15.8-13.3c7.3,6.8,8.9,16.4,6,27     c-3.7,13.4-4.5,25.1-5.7,40.6l-1.9,1l-1.4-0.8c0-16.3,2-18.6-2.2-35c-6.9,4.8-6.5,11.8-7.8,20c-0.3,2.1-0.3,3.1-3.7,5.7     c-4.2,3.3-13,7.3-14,7.1c-2.1-0.1-7.6-3.4-10.3-5c-4.7-2.9-8.8-7.3-7.6-10.9c1.4-4,4-3.8,4.1-3.8c0.4,2.4,6.7,5.5,8.4,4.2     C868.3,647.4,872.6,642.2,874.5,637.5z"></path>
			<path class="st13" d="M837.4,500.7c0.3,2.6,0.5,5.4,0.3,8.7c-1.5,34.6,3,68.5,3.6,104.1c-2.7,25.4-6.8,43.5-13.9,50.5     c-1.3,1.3-3.5,3.8-8,2.3c-0.5-0.2-0.8,0.6-1.1,1l17.3,13.7l27.2-52.4c0.4-2.6,2.3-4.9,1.3-7.3c-0.8-2-3.4-6.3-2.6-11     c7-40,14.2-69.4,13.2-95.7c-0.5-11.9-0.7-21-0.8-28.3l-1.5,0.7C872.5,487,851.8,495.1,837.4,500.7z"></path>
			<path class="st14" d="M836.6,658.9c3.9-9.4,7.6-18.1,11.6-25.3c1.8-3.2,4.7-13.9,15.8-13.3c7.3,6.8,8.9,16.4,6,27     c-3.7,13.4-4.5,25.1-5.7,40.6l-1.9,1l-1.4-0.8c0-16.3,2-18.6-2.2-35c-6.9,4.8-6.5,11.8-7.8,20c-0.3,2.1-0.3,3.1-3.7,5.7     c-4.2,3.3-13,7.3-14,7.1c-2.1-0.1-7.6-3.4-10.2-5c-4.8-2.9-8.8-7.3-7.6-10.9c1.4-4,4-3.8,4.1-3.8c0.4,2.4,6.7,5.5,8.4,4.2     C830.3,668.7,834.6,663.5,836.6,658.9z"></path>
		</g>
		<g>
			<g>
				<path class="st6" d="M895.8,703.7c0,0.3,0.1,0.5,0.1,0.8c0,0,0,0.1,0,0.1c0.1,0.2,0.2,0.5,0.3,0.7c0,0,0.1,0.1,0.1,0.1      c0.2,0.2,0.4,0.4,0.6,0.6c0.1,0.1,0.3,0.3,0.5,0.4c0.2,0.1,0.3,0.2,0.5,0.3l57.9,33.7l0,9.3L898,716c0,0-0.1,0-0.1-0.1      c-0.1-0.1-0.2-0.2-0.4-0.3c-0.2-0.1-0.4-0.2-0.5-0.4c0,0,0,0,0,0c-0.2-0.2-0.3-0.3-0.5-0.5c0,0-0.1-0.1-0.1-0.1      c0,0-0.1-0.1-0.1-0.1c0-0.1-0.1-0.1-0.1-0.2c-0.1-0.1-0.1-0.3-0.2-0.4c0,0,0,0,0-0.1c0,0,0-0.1,0-0.1c0-0.1-0.1-0.2-0.1-0.3      c0-0.1,0-0.3,0-0.4c0,0,0,0,0-0.1l0,0L895.8,703.7z"></path>
				<path class="st7" d="M958.1,741.2c0.1,0,0.2,0.1,0.4,0.1c0.8,0.2,1.7,0.3,2.5,0.3c0,0,0.1,0,0.1,0c0.9,0,1.8-0.1,2.7-0.3      c0,0,0.1,0,0.1,0c0.9-0.2,1.7-0.5,2.4-0.9l67.2-38.8c1.4-0.8,2.2-1.9,2.2-3l0,9.3c0,1.1-0.7,2.2-2.2,3l-67.2,38.8      c-0.3,0.2-0.7,0.4-1.1,0.5c-0.3,0.1-0.6,0.2-0.9,0.3c-0.1,0-0.3,0.1-0.4,0.1c0,0-0.1,0-0.1,0c-0.1,0-0.1,0-0.2,0.1      c-0.2,0-0.5,0.1-0.7,0.1c-0.2,0-0.5,0.1-0.7,0.1c-0.2,0-0.5,0-0.7,0c-0.1,0-0.2,0-0.3,0c0,0-0.1,0-0.1,0c-0.1,0-0.2,0-0.4,0      c-0.3,0-0.5,0-0.8-0.1c-0.3,0-0.6-0.1-0.9-0.1c-0.1,0-0.3-0.1-0.4-0.1c-0.1,0-0.2-0.1-0.4-0.1c-0.2-0.1-0.4-0.1-0.6-0.2      c-0.6-0.2-1.1-0.4-1.6-0.7l0-9.3C956.5,740.8,957.3,741,958.1,741.2z"></path>
				<path class="st8" d="M898,700.7c-2.9,1.7-2.9,4.4,0,6l57.9,33.7c2.8,1.7,7.5,1.7,10.4,0l67.2-38.8c2.9-1.6,2.9-4.4,0-6      l-57.9-33.7c-2.8-1.7-7.5-1.7-10.4,0L898,700.7z"></path>
			</g>
			<g>
				<polygon class="st1" points="965.5,544.6 963.4,589.9 965.7,710.7 977.6,703.8 977.5,537.7     "></polygon>
				<polygon class="st4" points="965.5,544.6 953.8,537.8 953.9,703.8 965.7,710.7     "></polygon>
			</g>
			<g>
				<path class="st1" d="M910.9,537.1l98.5,56.9c1.2,0.7,2.4,1.2,3.5,1.6c0.2,0.1,0.4,0.2,0.7,0.2c1.1,0.3,2.1,0.6,3.1,0.7      c0.1,0,0.2,0,0.3,0c1.1,0.1,2.1,0,3-0.2c0.1,0,0.1,0,0.2,0c1-0.2,1.9-0.6,2.7-1c0,0,0,0,0,0h0c0,0,0,0,0,0l-10.2,5.9      c0,0-0.1,0-0.1,0.1c-0.3,0.2-0.6,0.3-1,0.5c-0.3,0.1-0.7,0.3-1,0.4c-0.2,0.1-0.4,0.1-0.7,0.2c-0.1,0-0.1,0-0.2,0      c-0.1,0-0.2,0-0.2,0.1c-0.4,0.1-0.8,0.1-1.2,0.1c-0.4,0-0.8,0-1.3,0c-0.1,0-0.3,0-0.4,0c-0.1,0-0.2,0-0.3,0      c-0.2,0-0.5,0-0.7-0.1c-0.5-0.1-1.1-0.2-1.7-0.4c-0.2-0.1-0.5-0.2-0.7-0.2c-0.2-0.1-0.4-0.1-0.7-0.2c-0.3-0.1-0.6-0.2-0.8-0.3      c-0.9-0.4-1.7-0.8-2.6-1.3L900.7,543L910.9,537.1z"></path>
				<path class="st4" d="M900.7,543l98.5,56.9c10.5,6,19,1.2,19-10.8l0.3-106.3l6.8,3.9l-0.3,106.3c0,16.4-11.7,23-25.9,14.8      l-98.5-56.9L900.7,543z"></path>
			</g>
			<g>
				<path class="st6" d="M858.2,547.2c0,0.4,0.1,0.8,0.2,1.2c0,0,0,0.1,0,0.1c0.1,0.4,0.3,0.7,0.5,1c0,0.1,0.1,0.1,0.1,0.2      c0.2,0.3,0.5,0.7,0.9,1c0.2,0.2,0.5,0.4,0.8,0.6c0.2,0.2,0.4,0.3,0.7,0.5l89.1,51.8l1.8,6.1l-1.7,8.2l-89.1-51.8      c0,0-0.1-0.1-0.1-0.1c-0.2-0.1-0.4-0.3-0.6-0.4c-0.3-0.2-0.6-0.4-0.8-0.6c0,0-0.1,0-0.1-0.1c-0.3-0.2-0.5-0.5-0.7-0.8      c0-0.1-0.1-0.1-0.1-0.2c0-0.1-0.1-0.1-0.1-0.2c-0.1-0.1-0.1-0.2-0.2-0.3c-0.1-0.2-0.2-0.4-0.3-0.6c0,0,0-0.1,0-0.1      c0,0,0-0.1,0-0.1c0-0.1-0.1-0.3-0.1-0.4c0-0.2-0.1-0.4-0.1-0.7c0,0,0-0.1,0-0.1v0L858.2,547.2z"></path>
				<path class="st7" d="M954,604.9c0.2,0.1,0.4,0.1,0.5,0.1c1.3,0.3,2.6,0.4,3.9,0.4c0.1,0,0.1,0,0.1,0c1.4,0,2.8-0.2,4.1-0.5      c0.1,0,0.1,0,0.2,0c1.3-0.3,2.6-0.8,3.7-1.4l103.3-59.7c2.2-1.3,3.3-3,3.3-4.7l0,14.3c0,1.7-1.1,3.4-3.3,4.7l-103.3,59.6      c-0.5,0.3-1,0.6-1.6,0.8c-0.4,0.2-0.9,0.3-1.4,0.5c-0.2,0.1-0.5,0.1-0.7,0.2c-0.1,0-0.1,0-0.2,0c-0.1,0-0.2,0.1-0.3,0.1      c-0.4,0.1-0.7,0.1-1.1,0.2c-0.4,0.1-0.7,0.1-1.1,0.1c-0.4,0-0.7,0-1.1,0.1c-0.1,0-0.3,0-0.4,0c-0.1,0-0.1,0-0.2,0      c-0.2,0-0.4,0-0.6,0c-0.4,0-0.8,0-1.3-0.1c-0.5,0-1-0.1-1.4-0.2c-0.2,0-0.4-0.1-0.6-0.2c-0.2,0-0.4-0.1-0.5-0.1      c-0.3-0.1-0.7-0.1-1-0.2c-0.9-0.3-1.7-0.6-2.5-1.1l0-14.3C951.6,604.2,952.8,604.6,954,604.9z"></path>
				<path class="st8" d="M861.5,542.5c-4.4,2.6-4.4,6.7-0.1,9.2l89.1,51.8c4.4,2.5,11.5,2.6,16,0l103.3-59.7      c4.4-2.5,4.4-6.7,0.1-9.2l-89.1-51.8c-4.4-2.5-11.6-2.5-16,0L861.5,542.5z"></path>
			</g>
		</g>
		<path class="st15" d="M1013.6,476.6l21.5,4.8c7.3,15.3,9.6,28.6,6.7,40.3c-5.9,24-39.9,45.8-62.7,49.3    c-42.8,6.5-109.7-46.3-143.3-63.4c-1.9-29,1.6-35.6,13.7-43c21.5-13.1,38.2-16.8,58.5-9.3c25.4,9.5,47.9,13.9,67.8,23.6    L1013.6,476.6z"></path>
	</g>
	<g>
		<path class="st6" d="M190.5,524.5l0.1,11c130.7,76,159.4,95.1,290.1,171l-0.1-11C349.8,619.5,321.2,600.4,190.5,524.5z"></path>
		<path class="st8" d="M823.6,160.5l-633.1,364c130.7,76,159.3,95.1,290.1,171l633.1-364C982.9,255.6,954.3,236.5,823.6,160.5z"></path>
		<polygon class="st7" points="480.5,695.5 480.6,706.5 1113.8,342.5 1113.7,331.5   "></polygon>
	</g>
	<path class="st16" d="M913.8,392.4c-1.5,0.9-2.7,3-2.7,4.7c0,1.7,1.1,2.2,2.7,1.6c2.9-1.2,3.1-3.1,2.7-4.7   C916.1,392.3,915.3,391.5,913.8,392.4z"></path>
	<g>
		<path class="st17" d="M426.4,536.9l-0.3-86.6l107.7-62.3l0.3,86.6L426.4,536.9L426.4,536.9z M479.9,411.3c-1.5,0.9-2.7,3-2.7,4.7    c0,1.7,1.2,2.4,2.7,1.6c1.5-0.9,2.7-3,2.7-4.7C482.7,411.2,481.4,410.5,479.9,411.3L479.9,411.3z M544.2,378.7    c0-3.1-2.3-4.4-5-2.9l-118.6,68.5c-2.7,1.6-5,5.5-5,8.6l0.3,93c0,3.2,2.3,4.4,5,2.9l118.6-68.5c2.7-1.6,5-5.4,5-8.6L544.2,378.7z"></path>
		<polygon class="st16" points="533.8,387.9 426.1,450.2 426.4,536.9 534.1,474.5   "></polygon>
		<path class="st18" d="M415.9,546l-0.3-93l-6.5-3.8l0.3,93c0,0.4,0,0.8,0.1,1.1c0.2,1,0.7,1.7,1.4,2.1l6.5,3.8    C416.5,548.7,415.9,547.6,415.9,546z"></path>
		<path class="st18" d="M542.8,375.6l-6.5-3.8c0,0,0,0,0,0c-0.1,0-0.2-0.1-0.3-0.1c-0.1,0-0.2-0.1-0.3-0.1c-0.1,0-0.1,0-0.2,0    c0,0,0,0,0,0c0,0,0,0-0.1,0c-0.1,0-0.2,0-0.3,0c-0.1,0-0.2,0-0.3,0c0,0-0.1,0-0.1,0c0,0-0.1,0-0.1,0c-0.1,0-0.1,0-0.2,0    c-0.1,0-0.3,0.1-0.4,0.1c-0.1,0-0.1,0-0.2,0.1c-0.1,0-0.1,0-0.2,0.1c-0.1,0-0.2,0-0.2,0.1c-0.2,0.1-0.5,0.2-0.7,0.3l-118.6,68.5    c-0.5,0.3-1,0.7-1.5,1.2c-0.1,0.1-0.1,0.1-0.2,0.1c-0.1,0.1-0.1,0.1-0.2,0.2c-0.1,0.1-0.1,0.1-0.2,0.2c-0.1,0.1-0.1,0.1-0.2,0.2    c-0.1,0.2-0.3,0.3-0.4,0.5c0,0.1-0.1,0.1-0.1,0.2c0,0,0,0.1-0.1,0.1c0,0.1-0.1,0.1-0.1,0.2c-0.1,0.1-0.2,0.3-0.3,0.4    c-0.1,0.1-0.2,0.3-0.3,0.4c0,0,0,0,0,0c0,0,0,0,0,0c-0.1,0.1-0.1,0.2-0.2,0.4c-0.1,0.1-0.1,0.3-0.2,0.4c-0.1,0.1-0.1,0.3-0.2,0.4    c0,0,0,0,0,0c0,0,0,0,0,0c-0.1,0.1-0.1,0.3-0.2,0.4c-0.1,0.2-0.1,0.3-0.2,0.5c0,0.1,0,0.1-0.1,0.2c0,0,0,0.1,0,0.1    c0,0.1,0,0.1-0.1,0.2c-0.1,0.2-0.1,0.4-0.1,0.6c0,0.1,0,0.2-0.1,0.3c0,0.1,0,0.1,0,0.2c0,0.1,0,0.1,0,0.2c0,0.3-0.1,0.6-0.1,0.9    v0.1l6.5,3.8c0-0.4,0-0.8,0.1-1.1c0-0.1,0-0.1,0-0.2c0.1-0.4,0.1-0.7,0.3-1.1c0,0,0-0.1,0-0.1c0.1-0.4,0.3-0.8,0.4-1.2    c0,0,0,0,0,0c0.2-0.4,0.4-0.8,0.6-1.2c0,0,0,0,0,0c0.2-0.4,0.4-0.7,0.7-1.1c0,0,0-0.1,0.1-0.1c0.2-0.3,0.5-0.6,0.7-0.9    c0.1-0.1,0.1-0.1,0.2-0.2c0.1-0.1,0.2-0.2,0.3-0.3c0.5-0.4,1-0.9,1.5-1.2l118.6-68.5c0.3-0.2,0.6-0.3,0.9-0.4c0.1,0,0.1,0,0.2-0.1    c0.3-0.1,0.6-0.1,0.8-0.2c0,0,0,0,0.1,0c0.3,0,0.6,0,0.8,0c0,0,0,0,0,0C542.3,375.3,542.6,375.4,542.8,375.6L542.8,375.6    C542.8,375.5,542.8,375.6,542.8,375.6z"></path>
		<polygon class="st19" points="543.9,478 428.8,544.9 467.1,567 582.2,500.1   "></polygon>
		<polygon class="st18" points="507.4,595.3 507.3,603.2 631,531.4 631,523.5   "></polygon>
		<path class="st20" d="M467.1,567l-38.3-22.1L543.9,478l38.3,22.1L467.1,567L467.1,567z M543.3,472.7l-123.6,71.8l87.7,50.8    L631,523.5L543.3,472.7z"></path>
		<polygon class="st18" points="409.4,538.4 409.4,546.2 507.3,603.2 507.4,595.3   "></polygon>
		<g>
			<path class="st21" d="M443.5,541.1c0.2,0.1,0.6,0.1,0.8,0l2.4-1.4c0.2-0.1,0.2-0.3,0-0.5l-2.4-1.4c-0.2-0.1-0.6-0.1-0.8,0     l-2.4,1.4c-0.2,0.1-0.2,0.3,0,0.5L443.5,541.1z"></path>
			<path class="st21" d="M454.6,534.6c0.2,0.1,0.6,0.1,0.8,0l2.4-1.4c0.2-0.1,0.2-0.3,0-0.5l-2.4-1.4c-0.2-0.1-0.6-0.1-0.8,0     l-2.4,1.4c-0.2,0.1-0.2,0.3,0,0.5L454.6,534.6z"></path>
			<path class="st21" d="M451,536.7c0.2,0.1,0.6,0.1,0.8,0l2.4-1.4c0.2-0.1,0.2-0.3,0-0.5l-2.4-1.4c-0.2-0.1-0.6-0.1-0.8,0l-2.4,1.4     c-0.2,0.1-0.2,0.3,0,0.5L451,536.7z"></path>
			<path class="st21" d="M447.2,538.9c0.2,0.1,0.6,0.1,0.8,0l2.4-1.4c0.2-0.1,0.2-0.3,0-0.5l-2.4-1.4c-0.2-0.1-0.6-0.1-0.8,0     l-2.4,1.4c-0.2,0.1-0.2,0.3,0,0.5L447.2,538.9z"></path>
			<path class="st21" d="M453.3,536.9l-3.8,2.2c-0.3,0.2-0.3,0.5,0,0.7l3.8,2.2c0.3,0.2,0.9,0.2,1.2,0l3.8-2.2     c0.3-0.2,0.3-0.5,0-0.7l-3.8-2.2C454.2,536.7,453.7,536.7,453.3,536.9z"></path>
			<path class="st21" d="M439.9,543.2c0.2,0.1,0.6,0.1,0.8,0l2.4-1.4c0.2-0.1,0.2-0.3,0-0.5l-2.4-1.4c-0.2-0.1-0.6-0.1-0.8,0     l-2.4,1.4c-0.2,0.1-0.2,0.3,0,0.5L439.9,543.2z"></path>
			<path class="st21" d="M439.6,543.4l-2.4-1.4c-0.2-0.1-0.6-0.1-0.8,0l-2.4,1.4c-0.2,0.1-0.2,0.3,0,0.5l2.4,1.4     c0.2,0.1,0.6,0.1,0.8,0l2.4-1.4C439.8,543.7,439.8,543.5,439.6,543.4z"></path>
			<path class="st21" d="M447.7,540.2l-3.8,2.2c-0.3,0.2-0.3,0.5,0,0.7l3.8,2.2c0.3,0.2,0.9,0.2,1.2,0l3.8-2.2     c0.3-0.2,0.3-0.5,0-0.7l-3.8-2.2C448.6,540,448,540,447.7,540.2z"></path>
			<path class="st21" d="M455.7,547.3c0.3,0.2,0.9,0.2,1.2,0l3.8-2.2c0.3-0.2,0.4-0.5,0-0.7l-3.8-2.2c-0.3-0.2-0.9-0.2-1.3,0     l-3.8,2.2c-0.3,0.2-0.3,0.5,0,0.7L455.7,547.3z"></path>
			<path class="st21" d="M447.2,545.6l-3.8-2.2c-0.3-0.2-0.9-0.2-1.2,0l-3.8,2.2c-0.3,0.2-0.4,0.5,0,0.7l3.8,2.2     c0.3,0.2,0.9,0.2,1.3,0l3.8-2.2C447.6,546.2,447.5,545.8,447.2,545.6z"></path>
			<path class="st21" d="M454.9,547.8l-3.8-2.2c-0.3-0.2-0.9-0.2-1.2,0l-5.8,3.4c-0.3,0.2-0.3,0.5,0,0.7l3.8,2.2     c0.3,0.2,0.9,0.2,1.2,0l5.8-3.4C455.3,548.3,455.2,548,454.9,547.8z"></path>
			<path class="st21" d="M459.2,533.5l-3.8,2.2c-0.3,0.2-0.3,0.5,0,0.7l3.8,2.2c0.3,0.2,0.9,0.2,1.2,0l3.8-2.2     c0.3-0.2,0.3-0.5,0-0.7l-3.8-2.2C460.1,533.3,459.6,533.3,459.2,533.5z"></path>
			<path class="st21" d="M461.6,538.7l-3.8,2.2c-0.3,0.2-0.3,0.5,0,0.7l3.8,2.2c0.3,0.2,0.9,0.2,1.2,0l3.8-2.2     c0.3-0.2,0.4-0.5,0-0.7l-3.8-2.2C462.5,538.5,461.9,538.5,461.6,538.7z"></path>
			<path class="st21" d="M493.7,532.8l3.8-2.2c0.3-0.2,0.3-0.5,0-0.7l-3.8-2.2c-0.3-0.2-0.9-0.2-1.2,0l-3.8,2.2     c-0.3,0.2-0.4,0.5,0,0.7l3.8,2.2C492.8,533,493.4,533,493.7,532.8z"></path>
			<path class="st21" d="M463.3,549.8c0.3,0.2,0.9,0.2,1.2,0l3.8-2.2c0.3-0.2,0.3-0.5,0-0.7l-3.8-2.2c-0.3-0.2-0.9-0.2-1.2,0     l-3.8,2.2c-0.3,0.2-0.3,0.5,0,0.7L463.3,549.8z"></path>
			<path class="st21" d="M473,554.1c-0.3-0.2-0.9-0.2-1.2,0l-3.8,2.2c-0.3,0.2-0.3,0.5,0,0.7l3.8,2.2c0.3,0.2,0.9,0.2,1.2,0l3.8-2.2     c0.3-0.2,0.3-0.5,0-0.7L473,554.1z"></path>
			<path class="st21" d="M478.6,550.8c-0.3-0.2-0.9-0.2-1.2,0l-3.8,2.2c-0.3,0.2-0.3,0.5,0,0.7l3.8,2.2c0.3,0.2,0.9,0.2,1.2,0     l3.8-2.2c0.3-0.2,0.3-0.5,0-0.7L478.6,550.8z"></path>
			<path class="st21" d="M462.5,550.2l-3.8-2.2c-0.3-0.2-0.8-0.2-1.1-0.1l-7.7,4.5c-0.3,0.2-0.2,0.4,0.1,0.6l3.8,2.2     c0.3,0.2,0.9,0.2,1.1,0.1l7.7-4.5C463,550.7,462.9,550.4,462.5,550.2z"></path>
			<path class="st21" d="M471.9,552.1l-3.8-2.2c-0.3-0.2-0.9-0.2-1.3,0l-10.5,6.1c-0.3,0.2-0.4,0.5,0,0.7l3.8,2.2     c0.3,0.2,0.9,0.2,1.3,0l10.5-6.1C472.2,552.6,472.2,552.3,471.9,552.1z"></path>
			<path class="st21" d="M462.1,530.3c0.2,0.1,0.6,0.1,0.8,0l2.4-1.4c0.2-0.1,0.2-0.3,0-0.5l-2.4-1.4c-0.2-0.1-0.6-0.1-0.8,0     l-2.4,1.4c-0.2,0.1-0.2,0.3,0,0.5L462.1,530.3z"></path>
			<path class="st21" d="M458.4,532.4c0.2,0.1,0.6,0.1,0.8,0l2.4-1.4c0.2-0.1,0.2-0.3,0-0.5l-2.4-1.4c-0.2-0.1-0.6-0.1-0.8,0     l-2.4,1.4c-0.2,0.1-0.2,0.3,0,0.5L458.4,532.4z"></path>
			<path class="st21" d="M465.8,528.1c0.2,0.1,0.6,0.1,0.8,0l2.4-1.4c0.2-0.1,0.2-0.3,0-0.5l-2.4-1.4c-0.2-0.1-0.6-0.1-0.8,0     l-2.4,1.4c-0.2,0.1-0.2,0.3,0,0.5L465.8,528.1z"></path>
			<path class="st21" d="M473.2,523.8c0.2,0.1,0.6,0.1,0.8,0l2.4-1.4c0.2-0.1,0.2-0.3,0-0.5l-2.4-1.4c-0.2-0.1-0.6-0.1-0.8,0     l-2.4,1.4c-0.2,0.1-0.2,0.3,0,0.5L473.2,523.8z"></path>
			<path class="st21" d="M469.5,526c0.2,0.1,0.6,0.1,0.8,0l2.4-1.4c0.2-0.1,0.2-0.3,0-0.5l-2.4-1.4c-0.2-0.1-0.6-0.1-0.8,0l-2.4,1.4     c-0.2,0.1-0.2,0.3,0,0.5L469.5,526z"></path>
			<path class="st21" d="M498.9,508.9c0.2,0.1,0.6,0.1,0.8,0l2.4-1.4c0.2-0.1,0.2-0.3,0-0.5l-2.4-1.4c-0.2-0.1-0.6-0.1-0.8,0     l-2.4,1.4c-0.2,0.1-0.2,0.3,0,0.5L498.9,508.9z"></path>
			<path class="st21" d="M495.2,511c0.2,0.1,0.6,0.1,0.8,0l2.4-1.4c0.2-0.1,0.2-0.3,0-0.5l-2.4-1.4c-0.2-0.1-0.6-0.1-0.8,0l-2.4,1.4     c-0.2,0.1-0.2,0.3,0,0.5L495.2,511z"></path>
			<path class="st21" d="M491.4,513.2c0.2,0.1,0.6,0.1,0.8,0l2.4-1.4c0.2-0.1,0.2-0.3,0-0.5l-2.4-1.4c-0.2-0.1-0.6-0.1-0.8,0     l-2.4,1.4c-0.2,0.1-0.2,0.3,0,0.5L491.4,513.2z"></path>
			<path class="st21" d="M500,509.8l-3.8,2.2c-0.3,0.2-0.4,0.5,0,0.7l3.8,2.2c0.3,0.2,0.9,0.2,1.3,0l3.8-2.2c0.3-0.2,0.3-0.5,0-0.7     l-3.8-2.2C500.9,509.6,500.3,509.6,500,509.8z"></path>
			<path class="st21" d="M487.8,515.3c0.2,0.1,0.6,0.1,0.8,0l2.4-1.4c0.2-0.1,0.2-0.3,0-0.5l-2.4-1.4c-0.2-0.1-0.6-0.1-0.8,0     l-2.4,1.4c-0.2,0.1-0.2,0.3,0,0.5L487.8,515.3z"></path>
			<path class="st21" d="M508.2,511.6l-3.8,2.2c-0.3,0.2-0.3,0.5,0,0.7l3.8,2.2c0.3,0.2,0.9,0.2,1.2,0l3.8-2.2     c0.3-0.2,0.3-0.5,0-0.7l-3.8-2.2C509.1,511.4,508.5,511.4,508.2,511.6z"></path>
			<path class="st21" d="M484.3,517.4c0.2,0.1,0.6,0.1,0.8,0l2.4-1.4c0.2-0.1,0.2-0.3,0-0.5l-2.4-1.4c-0.2-0.1-0.6-0.1-0.8,0     l-2.4,1.4c-0.2,0.1-0.2,0.3,0,0.5L484.3,517.4z"></path>
			<path class="st21" d="M494.2,513.2l-3.8,2.2c-0.3,0.2-0.3,0.5,0,0.7l3.8,2.2c0.3,0.2,0.9,0.2,1.2,0l3.8-2.2     c0.3-0.2,0.3-0.5,0-0.7l-3.8-2.2C495,513,494.5,513,494.2,513.2z"></path>
			<path class="st21" d="M517,519.3l3.8-2.2c0.3-0.2,0.3-0.5,0-0.7l-3.8-2.2c-0.3-0.2-0.9-0.2-1.2,0l-3.8,2.2     c-0.3,0.2-0.3,0.5,0,0.7l3.8,2.2C516.1,519.5,516.7,519.5,517,519.3z"></path>
			<path class="st21" d="M502.4,515l-3.8,2.2c-0.3,0.2-0.3,0.5,0,0.7l3.8,2.2c0.3,0.2,0.9,0.2,1.2,0l3.8-2.2c0.3-0.2,0.3-0.5,0-0.7     l-3.8-2.2C503.3,514.8,502.7,514.8,502.4,515z"></path>
			<path class="st21" d="M526.3,521.2l3.8-2.2c0.3-0.2,0.3-0.5,0-0.7l-3.8-2.2c-0.3-0.2-0.9-0.2-1.2,0l-3.8,2.2     c-0.3,0.2-0.3,0.5,0,0.7l3.8,2.2C525.4,521.4,526,521.4,526.3,521.2z"></path>
			<path class="st21" d="M488.3,516.6l-3.8,2.2c-0.3,0.2-0.3,0.5,0,0.7l3.8,2.2c0.3,0.2,0.9,0.2,1.2,0l3.8-2.2     c0.3-0.2,0.3-0.5,0-0.7l-3.8-2.2C489.2,516.4,488.7,516.4,488.3,516.6z"></path>
			<path class="st21" d="M511.2,522.7l3.8-2.2c0.3-0.2,0.3-0.5,0-0.7l-3.8-2.2c-0.3-0.2-0.9-0.2-1.2,0l-3.8,2.2     c-0.3,0.2-0.4,0.5,0,0.7l3.8,2.2C510.3,522.9,510.8,522.9,511.2,522.7z"></path>
			<path class="st21" d="M520.5,524.6l3.8-2.2c0.3-0.2,0.3-0.5,0-0.7l-3.8-2.2c-0.3-0.2-0.9-0.2-1.2,0l-3.8,2.2     c-0.3,0.2-0.3,0.5,0,0.7l3.8,2.2C519.6,524.7,520.2,524.7,520.5,524.6z"></path>
			<path class="st21" d="M482.5,520l-3.8,2.2c-0.3,0.2-0.4,0.5,0,0.7l3.8,2.2c0.3,0.2,0.9,0.2,1.3,0l3.8-2.2c0.3-0.2,0.3-0.5,0-0.7     l-3.8-2.2C483.4,519.8,482.8,519.8,482.5,520z"></path>
			<path class="st21" d="M490.7,521.8l-3.8,2.2c-0.3,0.2-0.3,0.5,0,0.7l3.8,2.2c0.3,0.2,0.9,0.2,1.2,0l3.8-2.2     c0.3-0.2,0.3-0.5,0-0.7l-3.8-2.2C491.6,521.6,491,521.6,490.7,521.8z"></path>
			<path class="st21" d="M514.7,527.9l3.8-2.2c0.3-0.2,0.3-0.5,0-0.7l-3.8-2.2c-0.3-0.2-0.9-0.2-1.2,0l-3.8,2.2     c-0.3,0.2-0.4,0.5,0,0.7l3.8,2.2C513.8,528.1,514.4,528.1,514.7,527.9z"></path>
			<path class="st21" d="M476.7,523.4l-3.8,2.2c-0.3,0.2-0.3,0.5,0,0.7l3.8,2.2c0.3,0.2,0.9,0.2,1.2,0l3.8-2.2     c0.3-0.2,0.3-0.5,0-0.7l-3.8-2.2C477.6,523.2,477,523.2,476.7,523.4z"></path>
			<path class="st21" d="M484.9,525.2l-3.8,2.2c-0.3,0.2-0.3,0.5,0,0.7l3.8,2.2c0.3,0.2,0.9,0.2,1.2,0l3.8-2.2     c0.3-0.2,0.3-0.5,0-0.7l-3.8-2.2C485.8,525,485.2,525,484.9,525.2z"></path>
			<path class="st21" d="M520.8,526.3c-0.3-0.2-0.9-0.2-1.2,0l-3.8,2.2c-0.3,0.2-0.3,0.5,0,0.7l3.8,2.2c0.3,0.2,0.9,0.2,1.2,0     l3.8-2.2c0.3-0.2,0.3-0.5,0-0.7L520.8,526.3z"></path>
			<path class="st21" d="M470.9,526.7l-3.8,2.2c-0.3,0.2-0.3,0.5,0,0.7l3.8,2.2c0.3,0.2,0.9,0.2,1.2,0l3.8-2.2     c0.3-0.2,0.3-0.5,0-0.7l-3.8-2.2C471.8,526.5,471.2,526.5,470.9,526.7z"></path>
			<path class="st21" d="M479.1,528.6l-3.8,2.2c-0.3,0.2-0.3,0.5,0,0.7l3.8,2.2c0.3,0.2,0.9,0.2,1.2,0l3.8-2.2     c0.3-0.2,0.4-0.5,0-0.7l-3.8-2.2C480,528.4,479.4,528.4,479.1,528.6z"></path>
			<path class="st21" d="M503,534.7l3.8-2.2c0.3-0.2,0.3-0.5,0-0.7l-3.8-2.2c-0.3-0.2-0.9-0.2-1.2,0l-3.8,2.2     c-0.3,0.2-0.3,0.5,0,0.7l3.8,2.2C502.1,534.9,502.7,534.9,503,534.7z"></path>
			<path class="st21" d="M465,530.1l-3.8,2.2c-0.3,0.2-0.4,0.5,0,0.7l3.8,2.2c0.3,0.2,0.9,0.2,1.3,0l3.8-2.2c0.3-0.2,0.3-0.5,0-0.7     l-3.8-2.2C465.9,529.9,465.4,529.9,465,530.1z"></path>
			<path class="st21" d="M487.9,536.2l3.8-2.2c0.3-0.2,0.3-0.5,0-0.7l-3.8-2.2c-0.3-0.2-0.9-0.2-1.2,0l-3.8,2.2     c-0.3,0.2-0.3,0.5,0,0.7l3.8,2.2C487,536.4,487.6,536.4,487.9,536.2z"></path>
			<path class="st21" d="M473.3,531.9l-3.8,2.2c-0.3,0.2-0.3,0.5,0,0.7l3.8,2.2c0.3,0.2,0.9,0.2,1.2,0l3.8-2.2     c0.3-0.2,0.3-0.5,0-0.7l-3.8-2.2C474.2,531.7,473.6,531.7,473.3,531.9z"></path>
			<path class="st21" d="M497.2,538.1l3.8-2.2c0.3-0.2,0.3-0.5,0-0.7l-3.8-2.2c-0.3-0.2-0.9-0.2-1.2,0l-3.8,2.2     c-0.3,0.2-0.4,0.5,0,0.7l3.8,2.2C496.3,538.3,496.9,538.3,497.2,538.1z"></path>
			<path class="st21" d="M482.1,539.6l3.8-2.2c0.3-0.2,0.3-0.5,0-0.7l-3.8-2.2c-0.3-0.2-0.9-0.2-1.2,0l-3.8,2.2     c-0.3,0.2-0.3,0.5,0,0.7l3.8,2.2C481.2,539.8,481.7,539.8,482.1,539.6z"></path>
			<path class="st21" d="M491.4,541.5l3.8-2.2c0.3-0.2,0.3-0.5,0-0.7l-3.8-2.2c-0.3-0.2-0.9-0.2-1.2,0l-3.8,2.2     c-0.3,0.2-0.3,0.5,0,0.7l3.8,2.2C490.5,541.7,491.1,541.7,491.4,541.5z"></path>
			<path class="st21" d="M476.3,543l3.8-2.2c0.3-0.2,0.3-0.5,0-0.7l-3.8-2.2c-0.3-0.2-0.9-0.2-1.2,0l-3.8,2.2     c-0.3,0.2-0.4,0.5,0,0.7l3.8,2.2C475.3,543.2,475.9,543.2,476.3,543z"></path>
			<path class="st21" d="M485.6,544.9l3.8-2.2c0.3-0.2,0.3-0.5,0-0.7l-3.8-2.2c-0.3-0.2-0.9-0.2-1.2,0l-3.8,2.2     c-0.3,0.2-0.3,0.5,0,0.7l3.8,2.2C484.7,545,485.2,545,485.6,544.9z"></path>
			<path class="st21" d="M469.2,546.4c0.3,0.2,0.9,0.2,1.2,0l3.8-2.2c0.3-0.2,0.3-0.5,0-0.7l-3.8-2.2c-0.3-0.2-0.9-0.2-1.2,0     l-3.8,2.2c-0.3,0.2-0.3,0.5,0,0.7L469.2,546.4z"></path>
			<path class="st21" d="M479.8,548.2l3.8-2.2c0.3-0.2,0.3-0.5,0-0.7l-3.8-2.2c-0.3-0.2-0.9-0.2-1.2,0l-3.8,2.2     c-0.3,0.2-0.4,0.5,0,0.7l3.8,2.2C478.8,548.4,479.4,548.4,479.8,548.2z"></path>
			<path class="st21" d="M514.8,529.8c-0.3-0.2-0.9-0.2-1.4,0.1l-27.8,16.2c-0.4,0.2-0.5,0.6-0.1,0.8l3.8,2.2c0.3,0.2,1,0.2,1.4-0.1     l27.8-16.2c0.4-0.2,0.5-0.6,0.1-0.8L514.8,529.8z"></path>
			<path class="st21" d="M472.6,551.7c0.3,0.2,0.9,0.2,1.2,0l3.8-2.2c0.3-0.2,0.3-0.5,0-0.7l-3.8-2.2c-0.3-0.2-0.9-0.2-1.2,0     l-3.8,2.2c-0.3,0.2-0.3,0.5,0,0.7L472.6,551.7z"></path>
			<path class="st21" d="M484.5,547.4c-0.3-0.2-0.9-0.2-1.2,0l-3.8,2.2c-0.3,0.2-0.3,0.5,0,0.7l3.8,2.2c0.3,0.2,0.9,0.2,1.2,0     l3.8-2.2c0.3-0.2,0.3-0.5,0-0.7L484.5,547.4z"></path>
			<path class="st21" d="M467.4,535.3l-3.8,2.2c-0.3,0.2-0.3,0.5,0,0.7l3.8,2.2c0.3,0.2,0.9,0.2,1.2,0l3.8-2.2     c0.3-0.2,0.3-0.5,0-0.7l-3.8-2.2C468.3,535.1,467.8,535.1,467.4,535.3z"></path>
			<path class="st21" d="M499.5,529.5l3.8-2.2c0.3-0.2,0.3-0.5,0-0.7l-3.8-2.2c-0.3-0.2-0.9-0.2-1.2,0l-3.8,2.2     c-0.3,0.2-0.3,0.5,0,0.7l3.8,2.2C498.6,529.7,499.2,529.7,499.5,529.5z"></path>
			<path class="st21" d="M508.9,531.3l3.8-2.2c0.3-0.2,0.3-0.5,0-0.7l-3.8-2.2c-0.3-0.2-0.9-0.2-1.2,0l-3.8,2.2     c-0.3,0.2-0.3,0.5,0,0.7l3.8,2.2C508,531.5,508.5,531.5,508.9,531.3z"></path>
			<path class="st21" d="M505.4,526.1l3.8-2.2c0.3-0.2,0.3-0.5,0-0.7l-3.8-2.2c-0.3-0.2-0.9-0.2-1.2,0l-3.8,2.2     c-0.3,0.2-0.3,0.5,0,0.7l3.8,2.2C504.5,526.3,505,526.3,505.4,526.1z"></path>
			<path class="st21" d="M496.5,518.4l-3.8,2.2c-0.3,0.2-0.3,0.5,0,0.7l3.8,2.2c0.3,0.2,0.9,0.2,1.2,0l3.8-2.2     c0.3-0.2,0.4-0.5,0-0.7l-3.8-2.2C497.4,518.2,496.9,518.2,496.5,518.4z"></path>
			<path class="st21" d="M529.5,499.3l-8.1,4.7c-0.3,0.2-0.2,0.5,0.1,0.7l3.8,2.2c0.3,0.2,0.8,0.2,1.1,0.1l8.1-4.7     c0.3-0.2,0.2-0.4-0.1-0.6l-3.8-2.2C530.3,499.1,529.8,499.1,529.5,499.3z"></path>
			<path class="st21" d="M519.8,504.9l-3.8,2.2c-0.3,0.2-0.3,0.5,0,0.7l3.8,2.2c0.3,0.2,0.9,0.2,1.2,0l3.8-2.2     c0.3-0.2,0.3-0.5,0-0.7l-3.8-2.2C520.7,504.7,520.2,504.7,519.8,504.9z"></path>
			<path class="st21" d="M543,504.4l3.8-2.2c0.3-0.2,0.3-0.5,0-0.7l-3.8-2.2c-0.3-0.2-0.9-0.2-1.2,0l-3.8,2.2     c-0.3,0.2-0.3,0.5,0,0.7l3.8,2.2C542.1,504.6,542.6,504.6,543,504.4z"></path>
			<polygon class="st21" points="545.8,514.5 545.3,514.5 541,517 541,517.3 542.8,518.4 543.4,518.4 547.7,515.9 547.7,515.6         "></polygon>
			<polygon class="st21" points="542.4,512.9 538.2,515.4 538.2,515.7 540,516.8 540.6,516.8 544.8,514.3 544.8,514 543,512.9         "></polygon>
			<polygon class="st21" points="540.5,517.6 539.9,517.6 535.6,520.1 535.7,520.4 537.5,521.5 538,521.5 542.3,519 542.3,518.7         "></polygon>
			<path class="st21" d="M528.8,512.6l11.6-6.8c0.4-0.2,0.4-0.6,0.1-0.8l-3.8-2.2c-0.3-0.2-0.9-0.2-1.3,0.1l-11.6,6.8     c-0.4,0.2-0.4,0.6-0.1,0.8l3.8,2.2C527.8,512.9,528.5,512.9,528.8,512.6z"></path>
			<path class="st21" d="M522.8,515.9l3.8-2.2c0.3-0.2,0.3-0.5,0-0.7l-3.8-2.2c-0.3-0.2-0.9-0.2-1.2,0l-3.8,2.2     c-0.3,0.2-0.3,0.5,0,0.7l3.8,2.2C521.9,516.1,522.5,516.1,522.8,515.9z"></path>
			<path class="st21" d="M546.7,508.6l-3.8-2.2c-0.3-0.2-0.9-0.2-1.2,0c-4.9,2.8-9.7,5.6-14.5,8.4c-0.3,0.2-0.4,0.5,0,0.7l3.8,2.2     c0.3,0.2,0.9,0.2,1.3,0c4.8-2.8,9.6-5.6,14.5-8.4C547,509.1,547,508.8,546.7,508.6z"></path>
			<path class="st21" d="M505.8,506.4l-3.8,2.2c-0.3,0.2-0.3,0.5,0,0.7l3.8,2.2c0.3,0.2,0.9,0.2,1.2,0l3.8-2.2     c0.3-0.2,0.3-0.5,0-0.7l-3.8-2.2C506.7,506.2,506.1,506.2,505.8,506.4z"></path>
			<path class="st21" d="M513.7,500.3c0.2,0.1,0.6,0.1,0.8,0l2.4-1.4c0.2-0.1,0.2-0.3,0-0.5l-2.4-1.4c-0.2-0.1-0.6-0.1-0.8,0     l-2.4,1.4c-0.2,0.1-0.2,0.3,0,0.5L513.7,500.3z"></path>
			<path class="st21" d="M510,502.4c0.2,0.1,0.6,0.1,0.8,0l2.4-1.4c0.2-0.1,0.2-0.3,0-0.5l-2.4-1.4c-0.2-0.1-0.6-0.1-0.8,0l-2.4,1.4     c-0.2,0.1-0.2,0.3,0,0.5L510,502.4z"></path>
			<path class="st21" d="M523.7,496l-10,5.8c-0.3,0.2-0.4,0.5,0,0.7l3.8,2.2c0.3,0.2,0.9,0.2,1.3,0l10-5.8c0.3-0.2,0.3-0.5,0-0.7     l-3.8-2.2C524.6,495.9,524,495.9,523.7,496z"></path>
			<path class="st21" d="M511.6,503.1l-3.8,2.2c-0.3,0.2-0.3,0.5,0,0.7l3.8,2.2c0.3,0.2,0.9,0.2,1.2,0l3.8-2.2     c0.3-0.2,0.3-0.5,0-0.7l-3.8-2.2C512.5,502.9,512,502.9,511.6,503.1z"></path>
			<path class="st21" d="M514,508.3l-3.8,2.2c-0.3,0.2-0.3,0.5,0,0.7l3.8,2.2c0.3,0.2,0.9,0.2,1.2,0l3.8-2.2c0.3-0.2,0.4-0.5,0-0.7     l-3.8-2.2C514.9,508.1,514.3,508.1,514,508.3z"></path>
			<path class="st21" d="M561,503c-0.3-0.2-0.9-0.2-1.2,0l-3.8,2.2c-0.3,0.2-0.3,0.5,0,0.7l3.8,2.2c0.3,0.2,0.9,0.2,1.2,0l3.8-2.2     c0.3-0.2,0.3-0.5,0-0.7L561,503z"></path>
			<path class="st21" d="M543.5,482.9c0.2,0.1,0.6,0.1,0.8,0l2.4-1.4c0.2-0.1,0.2-0.3,0-0.5l-2.4-1.4c-0.2-0.1-0.6-0.1-0.8,0     l-2.4,1.4c-0.2,0.1-0.2,0.3,0,0.5L543.5,482.9z"></path>
			<path class="st21" d="M539.9,485.1c0.2,0.1,0.6,0.1,0.8,0l2.4-1.4c0.2-0.1,0.2-0.3,0-0.5l-2.4-1.4c-0.2-0.1-0.6-0.1-0.8,0     l-2.4,1.4c-0.2,0.1-0.2,0.3,0,0.5L539.9,485.1z"></path>
			<path class="st21" d="M543.8,485.2l3.8,2.2c0.3,0.2,0.9,0.2,1.2,0l3.8-2.2c0.3-0.2,0.3-0.5,0-0.7l-3.8-2.2     c-0.3-0.2-0.9-0.2-1.2,0l-3.8,2.2C543.4,484.7,543.4,485,543.8,485.2z"></path>
			<path class="st21" d="M542.9,485.7c-0.3-0.2-0.9-0.2-1.2,0l-3.8,2.2c-0.3,0.2-0.3,0.5,0,0.7l3.8,2.2c0.3,0.2,0.9,0.2,1.2,0     l3.8-2.2c0.3-0.2,0.3-0.5,0-0.7L542.9,485.7z"></path>
			<path class="st21" d="M548.5,488.9c-0.3-0.2-0.9-0.2-1.2,0l-3.8,2.2c-0.3,0.2-0.3,0.5,0,0.7l3.8,2.2c0.3,0.2,0.9,0.2,1.2,0     l3.8-2.2c0.3-0.2,0.3-0.5,0-0.7L548.5,488.9z"></path>
			<path class="st21" d="M549.3,488.5c3.3,1.9,6.6,3.8,10,5.8c0.3,0.2,0.9,0.2,1.2,0l3.8-2.2c0.3-0.2,0.3-0.5,0-0.7     c-3.3-1.9-6.6-3.8-10-5.8c-0.3-0.2-0.9-0.2-1.2,0l-3.8,2.2C549,487.9,549,488.3,549.3,488.5z"></path>
			<path class="st21" d="M554.7,497.6l3.8-2.2c0.3-0.2,0.3-0.5,0-0.7l-3.8-2.2c-0.3-0.2-0.9-0.2-1.2,0l-3.8,2.2     c-0.3,0.2-0.3,0.5,0,0.7l3.8,2.2C553.8,497.8,554.3,497.8,554.7,497.6z"></path>
			<path class="st21" d="M560.8,501.1l3.8-2.2c0.3-0.2,0.3-0.5,0-0.7l-3.8-2.2c-0.3-0.2-0.9-0.2-1.2,0l-3.8,2.2     c-0.3,0.2-0.4,0.5,0,0.7l3.8,2.2C559.9,501.3,560.5,501.3,560.8,501.1z"></path>
			<path class="st21" d="M576.7,498.3c-3.3-1.9-6.6-3.8-10-5.8c-0.3-0.2-0.9-0.2-1.2,0l-3.8,2.2c-0.3,0.2-0.3,0.5,0,0.7     c3.3,1.9,6.6,3.8,10,5.8c0.3,0.2,0.9,0.2,1.2,0l3.8-2.2C577,498.8,577,498.5,576.7,498.3z"></path>
			<path class="st21" d="M566.9,499.6c-0.3-0.2-0.9-0.2-1.2,0l-3.8,2.2c-0.3,0.2-0.3,0.5,0,0.7l3.8,2.2c0.3,0.2,0.9,0.2,1.2,0     l3.8-2.2c0.3-0.2,0.3-0.5,0-0.7L566.9,499.6z"></path>
			<path class="st21" d="M548.8,501l3.8-2.2c0.3-0.2,0.3-0.5,0-0.7l-3.8-2.2c-0.3-0.2-0.9-0.2-1.2,0l-3.8,2.2     c-0.3,0.2-0.3,0.5,0,0.7l3.8,2.2C547.9,501.2,548.5,501.2,548.8,501z"></path>
			<path class="st21" d="M542.7,497.5l3.8-2.2c0.3-0.2,0.4-0.5,0-0.7l-3.8-2.2c-0.3-0.2-0.9-0.2-1.3,0l-3.8,2.2     c-0.3,0.2-0.3,0.5,0,0.7l3.8,2.2C541.8,497.7,542.3,497.7,542.7,497.5z"></path>
			<path class="st21" d="M535.5,495.7l-3.8,2.2c-0.3,0.2-0.3,0.5,0,0.7l3.8,2.2c0.3,0.2,0.9,0.2,1.2,0l3.8-2.2     c0.3-0.2,0.3-0.5,0-0.7l-3.8-2.2C536.4,495.5,535.9,495.5,535.5,495.7z"></path>
			<path class="st21" d="M535.7,489.1l-3.8,2.2c-0.3,0.2-0.3,0.5,0,0.7l3.8,2.2c0.3,0.2,0.9,0.2,1.2,0l3.8-2.2     c0.3-0.2,0.3-0.5,0-0.7l-3.8-2.2C536.7,488.9,536.1,488.9,535.7,489.1z"></path>
			<path class="st21" d="M521.1,496c0.2,0.1,0.6,0.1,0.8,0l2.4-1.4c0.2-0.1,0.2-0.3,0-0.5l-2.4-1.4c-0.2-0.1-0.6-0.1-0.8,0l-2.4,1.4     c-0.2,0.1-0.2,0.3,0,0.5L521.1,496z"></path>
			<path class="st21" d="M536.1,487.2c0.2,0.1,0.6,0.1,0.8,0l2.4-1.4c0.2-0.1,0.2-0.3,0-0.5l-2.4-1.4c-0.2-0.1-0.6-0.1-0.8,0     l-2.4,1.4c-0.2,0.1-0.2,0.3,0,0.5L536.1,487.2z"></path>
			<path class="st21" d="M532.4,489.4c0.2,0.1,0.6,0.1,0.8,0l2.4-1.4c0.2-0.1,0.2-0.3,0-0.5l-2.4-1.4c-0.2-0.1-0.6-0.1-0.8,0     l-2.4,1.4c-0.2,0.1-0.2,0.3,0,0.5L532.4,489.4z"></path>
			<path class="st21" d="M528.5,491.7c0.2,0.1,0.6,0.1,0.8,0l2.4-1.4c0.2-0.1,0.2-0.3,0-0.5l-2.4-1.4c-0.2-0.1-0.6-0.1-0.8,0     l-2.4,1.4c-0.2,0.1-0.2,0.3,0,0.5L528.5,491.7z"></path>
			<path class="st21" d="M524.8,493.8c0.2,0.1,0.6,0.1,0.8,0l2.4-1.4c0.2-0.1,0.2-0.3,0-0.5l-2.4-1.4c-0.2-0.1-0.6-0.1-0.8,0     l-2.4,1.4c-0.2,0.1-0.2,0.3,0,0.5L524.8,493.8z"></path>
			<path class="st21" d="M529.9,492.5l-3.8,2.2c-0.3,0.2-0.3,0.5,0,0.7l3.8,2.2c0.3,0.2,0.9,0.2,1.2,0l3.8-2.2     c0.3-0.2,0.3-0.5,0-0.7l-3.8-2.2C530.7,492.3,530.2,492.3,529.9,492.5z"></path>
			<polygon class="st21" points="551.3,511.4 550.7,511.3 546.4,513.8 546.4,514.2 548.2,515.2 548.8,515.2 553.1,512.7      553.1,512.4    "></polygon>
			<path class="st21" d="M555.2,506.4c-0.3-0.2-0.9-0.2-1.2,0l-3.8,2.2c-0.3,0.2-0.3,0.5,0,0.7l3.8,2.2c0.3,0.2,0.9,0.2,1.2,0     l3.8-2.2c0.3-0.2,0.3-0.5,0-0.7L555.2,506.4z"></path>
			<path class="st21" d="M549.1,508l3.8-2.2c0.3-0.2,0.3-0.5,0-0.7l-3.8-2.2c-0.3-0.2-0.9-0.2-1.2,0L544,505c-0.3,0.2-0.3,0.5,0,0.7     l3.8,2.2C548.2,508.2,548.7,508.2,549.1,508z"></path>
			<path class="st21" d="M554.9,504.5l3.8-2.2c0.3-0.2,0.3-0.5,0-0.7l-3.8-2.2c-0.3-0.2-0.9-0.2-1.2,0l-3.8,2.2     c-0.3,0.2-0.3,0.5,0,0.7l3.8,2.2C554,504.7,554.6,504.8,554.9,504.5z"></path>
			<path class="st21" d="M467.4,557.3c-0.3-0.2-0.9-0.2-1.2,0l-3.8,2.2c-0.3,0.2-0.3,0.5,0,0.7l3.8,2.2c0.3,0.2,0.9,0.2,1.2,0     l3.8-2.2c0.3-0.2,0.3-0.5,0-0.7L467.4,557.3z"></path>
			<path class="st21" d="M532.4,519.6c-0.3-0.2-0.9-0.2-1.2,0l-3.8,2.2c-0.3,0.2-0.3,0.5,0,0.7l3.8,2.2c0.3,0.2,0.9,0.2,1.2,0     l3.8-2.2c0.3-0.2,0.3-0.5,0-0.7L532.4,519.6z"></path>
			<path class="st21" d="M526.6,523c-0.3-0.2-0.9-0.2-1.2,0l-3.8,2.2c-0.3,0.2-0.3,0.5,0,0.7l3.8,2.2c0.3,0.2,0.9,0.2,1.2,0l3.8-2.2     c0.3-0.2,0.3-0.5,0-0.7L526.6,523z"></path>
			<path class="st21" d="M480.6,519.5c0.2,0.1,0.6,0.1,0.8,0l2.4-1.4c0.2-0.1,0.2-0.3,0-0.5l-2.4-1.4c-0.2-0.1-0.6-0.1-0.8,0     l-2.4,1.4c-0.2,0.1-0.2,0.3,0,0.5L480.6,519.5z"></path>
			<path class="st21" d="M476.9,521.7c0.2,0.1,0.6,0.1,0.8,0l2.4-1.4c0.2-0.1,0.2-0.3,0-0.5l-2.4-1.4c-0.2-0.1-0.6-0.1-0.8,0     l-2.4,1.4c-0.2,0.1-0.2,0.3,0,0.5L476.9,521.7z"></path>
			<path class="st21" d="M502.6,506.7c0.2,0.1,0.6,0.1,0.8,0l2.4-1.4c0.2-0.1,0.2-0.3,0-0.5l-2.4-1.4c-0.2-0.1-0.6-0.1-0.8,0     l-2.4,1.4c-0.2,0.1-0.2,0.3,0,0.5L502.6,506.7z"></path>
			<path class="st21" d="M506.3,504.6c0.2,0.1,0.6,0.1,0.8,0l2.4-1.4c0.2-0.1,0.2-0.3,0-0.5l-2.4-1.4c-0.2-0.1-0.6-0.1-0.8,0     l-2.4,1.4c-0.2,0.1-0.2,0.3,0,0.5L506.3,504.6z"></path>
			<path class="st21" d="M517.4,498.1c0.2,0.1,0.6,0.1,0.8,0l2.4-1.4c0.2-0.1,0.2-0.3,0-0.5l-2.4-1.4c-0.2-0.1-0.6-0.1-0.8,0     l-2.4,1.4c-0.2,0.1-0.2,0.3,0,0.5L517.4,498.1z"></path>
		</g>
		<polygon class="st18" points="555.6,531.5 518.5,553.1 539.7,565.3 576.8,543.7   "></polygon>
	</g>
	<g>
		<g>
			<path class="st11" d="M548.6,502.2l17.6-11.7l17.6-1.1l15.5,0.7l15.5,6.8l18.5,8.9l-2.8,9.2l-6.7,6.9l-11-5     c-6.3,3.2-9.7,4.3-13.1,4.3c-3.8,0-7.6-1.5-15.2-3.4c-14.1-0.5-17.5-1.8-17.2-5.6c0.3-5.1,4.8-4.1,12.3-3.5     c10.7,0.9,12-5.6,2.3-8.5c-5.5,0.6-10.3,0.1-15.7,0.7C555.6,508.5,550.9,507.2,548.6,502.2z"></path>
			<path class="st22" d="M674.9,511.5l-52.1-12.2c-8.1,4.6-10.4,13.7-8.4,23.7l57.6,20.6L674.9,511.5z"></path>
		</g>
		<g>
			<path class="st23" d="M662.2,480.9c-31.7,18.3-49.1,38-38.8,44c10.3,6,44.3-4,76-22.3c31.7-18.3,49.1-38,38.8-44     C728,452.6,693.9,462.6,662.2,480.9z"></path>
			<g>
				<path class="st11" d="M713.6,417.5c-4.1,34.5-4.6,27.3,3.7,62.1l-44.8,21c3.8-48.9-1.5-53.7-15.2-100.4L713.6,417.5z"></path>
				<path class="st13" d="M643.3,376.8c-3.6,8.4-5.7,15.3-4.9,25.9c0.6,8.6,2.9,21.2,4.5,29.6c1.4,7,4.9,32.8,10.6,35.3      c4.1,1.8,24.3-6.6,31-14.7c4.9-5.9-0.6-20.7,1.6-24.1l-17.3-51.4L643.3,376.8z"></path>
				<path class="st24" d="M704.5,361.5c21.5,13,24.4,39.2,14.5,60.9c-4.4,9.7-6.9,16-7.4,32.8c-14.2,5.8-22.5,3.1-33.4-10.5      c-10.9-13.7-10-29.3-18.4-29.6c-3.4-0.1-6.1,4.4-4.1,17.7c-6.6-12.6-9.4-29.9-18.7-39.8c-4.4-4.7-6.6-9.6-7.2-16.9      c7.8-1.4,13.2-10.2,22.1-14.5C670,352.8,693.3,349.2,704.5,361.5z"></path>
			</g>
			<path class="st25" d="M712.9,458.7c0.4,12-27.3,17-40,8.9l-3.4,9.3c11,15.3,48.5,14.3,47.6-4.4L712.9,458.7z"></path>
			<path class="st23" d="M717.4,471.2c8.3-3.8,10.3-14,18.3-13.6c2,0.1,4.7,1.9,7.6,3.4c9.5,5,16.6,20.1,18.7,36.4     c7.2,56.6-18.3,64.4-15.4,133.8c0.5,12.9,4.3,49.4,7.6,73.6c-4.4,57.2-119.1,62.9-124.8-5c1.1-15.6,1.7-31.9,0.5-49.5     c-3.8-55.8-17.2-108.7-12.1-120.9c3.4-8.1,8.9-22.3,23.5-32.4c12.7-8.8,16.6-12.9,28.8-21.9C693.9,486.7,714.9,478.9,717.4,471.2     z"></path>
			<path class="st13" d="M556.6,583.4c-10.8-8.3-11.4-9.9-20.5-22.5c-3.4-4.7-5.1-7.1-12-11.3c-6.5-4-22.7-1.3-36.3-3.6     c-9-1.5-11.8,5.5-12.2,9.8c-0.7,8.2,9.3,13.2,16.4,19.6c6.2,5.5,9.2,8.7,18,13.4c5.7,3,13.2,4.7,18.9,7.7l14.1,10.3l12.7-22.1     l-0.4-0.4L556.6,583.4z"></path>
			<path class="st25" d="M619.4,617.3l-70.8-44.2c-13.6,10.3-13.7,11.6-22.4,25.3c6.7,6.9,73.9,59.7,99.5,74.6     c11.7,6.8,16.8,3.6,24.2-7.4C662.5,646.1,639,629.4,619.4,617.3z"></path>
			<path class="st25" d="M630.1,506.9c-10.8,9.4-11.6,11.9-13.9,18.6c-7,20.3-3.8,62.5-4.3,97.3c1.5,28.7-4.8,45.9,23.4,48.2     c13.4,1.8,16.9-3.1,19.5-16.1l16.9-84.3C675.8,521.3,644.7,500.3,630.1,506.9z"></path>
			<g>
				<g>
					<path class="st6" d="M663.5,656.1l0.2,72c0,0.6,0.1,1.2,0.2,1.7c0,0,0,0,0,0c0.1,0.5,0.3,1,0.5,1.4c0,0,0,0,0,0       c0.1,0.3,0.3,0.5,0.5,0.7c0.4,0.5,0.7,0.9,1.2,1.2l-12.3-7.2c-0.5-0.3-0.9-0.7-1.2-1.2c0-0.1-0.1-0.1-0.2-0.2       c-0.1-0.2-0.2-0.4-0.3-0.5c0,0,0,0,0,0c0,0,0,0,0,0c-0.1-0.1-0.1-0.3-0.2-0.4c-0.1-0.1-0.1-0.3-0.1-0.4c0-0.1-0.1-0.3-0.1-0.4       c0-0.1,0-0.1,0-0.2c0,0,0,0,0,0c0-0.1,0-0.1,0-0.2c0-0.1,0-0.3-0.1-0.4c0-0.1,0-0.3,0-0.4c0-0.1,0-0.2,0-0.4c0-0.1,0-0.3,0-0.4       c0,0,0,0,0,0l-0.2-72L663.5,656.1z"></path>
					<path class="st8" d="M668.3,644.7C668.3,644.7,668.3,644.8,668.3,644.7c-0.5,0.5-0.9,1.1-1.4,1.6c0,0,0,0,0,0       c-0.4,0.6-0.8,1.2-1.1,1.8c0,0,0,0.1-0.1,0.1c-0.3,0.6-0.7,1.2-0.9,1.9c0,0,0,0,0,0c-0.3,0.7-0.5,1.3-0.7,2c0,0,0,0,0,0       c-0.2,0.7-0.4,1.3-0.5,2c0,0,0,0,0,0c-0.1,0.7-0.2,1.3-0.2,1.9l-12.3-7.2c0-0.1,0-0.2,0-0.4c0-0.1,0-0.2,0-0.4       c0-0.1,0-0.3,0-0.4c0-0.1,0-0.3,0-0.4c0-0.1,0-0.3,0.1-0.4c0,0,0,0,0,0c0,0,0,0,0,0c0-0.1,0-0.2,0.1-0.4c0-0.1,0.1-0.3,0.1-0.4       c0-0.1,0.1-0.3,0.1-0.4c0-0.1,0.1-0.3,0.1-0.4c0-0.1,0.1-0.2,0.1-0.3c0,0,0,0,0,0c0,0,0,0,0-0.1c0-0.1,0.1-0.3,0.1-0.4       c0-0.1,0.1-0.3,0.1-0.4c0-0.1,0.1-0.3,0.1-0.4c0.1-0.1,0.1-0.3,0.2-0.4c0-0.1,0.1-0.2,0.1-0.3c0,0,0,0,0,0c0,0,0-0.1,0-0.1       c0.1-0.1,0.1-0.3,0.2-0.4c0.1-0.1,0.1-0.3,0.2-0.4c0.1-0.2,0.2-0.3,0.2-0.5c0.1-0.2,0.2-0.3,0.3-0.5c0,0,0-0.1,0.1-0.1       c0,0,0-0.1,0.1-0.1c0.2-0.3,0.4-0.6,0.6-1c0.2-0.2,0.3-0.5,0.5-0.7c0,0,0,0,0,0c0,0,0,0,0,0c0.1-0.2,0.2-0.3,0.4-0.5       c0.1-0.1,0.2-0.3,0.3-0.4c0.1-0.1,0.2-0.2,0.3-0.4c0.1-0.1,0.2-0.2,0.3-0.4c0,0,0,0,0,0c0,0,0,0,0,0c0.1-0.1,0.2-0.2,0.3-0.3       c0.1-0.1,0.2-0.2,0.3-0.3c0.1-0.1,0.2-0.2,0.4-0.3c0.1-0.1,0.2-0.2,0.4-0.3c0.1,0,0.1-0.1,0.2-0.1c0,0,0,0,0,0       c0,0,0.1-0.1,0.1-0.1c0.1-0.1,0.2-0.2,0.3-0.3c0.1-0.1,0.2-0.2,0.3-0.2c0.1-0.1,0.2-0.2,0.3-0.2c0.1-0.1,0.2-0.1,0.3-0.2       c0,0,0.1,0,0.1,0l103.3-59.6c0.1,0,0.2-0.1,0.3-0.1c0.1-0.1,0.2-0.1,0.3-0.2c0.1-0.1,0.2-0.1,0.3-0.2c0.1-0.1,0.2-0.1,0.3-0.1       c0.1,0,0.2-0.1,0.3-0.1c0,0,0.1,0,0.1,0c0,0,0,0,0,0c0.1,0,0.2-0.1,0.2-0.1c0.1,0,0.2-0.1,0.3-0.1c0.1,0,0.2-0.1,0.3-0.1       c0.1,0,0.2,0,0.4-0.1c0.1,0,0.2,0,0.2,0c0,0,0,0,0,0c0,0,0.1,0,0.1,0c0.1,0,0.3,0,0.4,0c0.1,0,0.3,0,0.4,0c0.2,0,0.3,0,0.5,0.1       c0,0,0,0,0,0c0,0,0,0,0,0c0.2,0,0.4,0.1,0.5,0.1c0.2,0.1,0.4,0.2,0.7,0.3l12.3,7.2c-0.4-0.2-0.8-0.4-1.2-0.4c0,0,0,0,0,0       c-0.4-0.1-0.9-0.1-1.3-0.1c0,0,0,0,0,0c-0.5,0-1,0.2-1.5,0.3c0,0,0,0,0,0c-0.5,0.2-1.1,0.4-1.6,0.7l-103.3,59.6       c-0.5,0.3-1.1,0.7-1.6,1.1c0,0,0,0,0,0C669.3,643.8,668.8,644.2,668.3,644.7z"></path>
					<path class="st7" d="M671.4,642.2l103.3-59.6c4.4-2.6,8-0.5,8,4.6l0.2,72c0,5.1-3.5,11.3-8,13.8l-103.3,59.6       c-4.4,2.6-8,0.5-8-4.6l-0.2-72C663.4,651,667,644.8,671.4,642.2z"></path>
				</g>
				<g>
					<path class="st1" d="M722.2,779.7l0.3-106.3l10.2-5.9l-0.3,106.3c0,5.1-1.1,9.2-3.1,12.3c-1.2,1.8-2.7,3.3-4.4,4.3l-10.2,5.9       C719.3,793.5,722.1,787.8,722.2,779.7z"></path>
					<polygon class="st1" points="722.5,673.4 732.7,667.4 725.8,663.5 715.6,669.4      "></polygon>
					<path class="st4" d="M696.3,786.6c10.5,6,19,1.2,19-10.8l0.3-106.3l6.8,3.9l-0.3,106.3c0,16.4-11.7,23-25.9,14.8L696.3,786.6z"></path>
				</g>
			</g>
		</g>
	</g>
	<g>
		<g>
			<path class="st17" d="M763.3,373.5l-0.3-86.6l107.7-62.3l0.3,86.6L763.3,373.5L763.3,373.5z M816.8,248c-1.5,0.9-2.7,3-2.7,4.7     c0,1.7,1.2,2.4,2.7,1.6c1.5-0.9,2.7-3,2.7-4.7C819.6,247.8,818.3,247.1,816.8,248L816.8,248z M881.1,215.4c0-3.1-2.3-4.4-5-2.9     L757.5,281c-2.7,1.6-5,5.5-5,8.6l0.3,93c0,3.2,2.3,4.4,5,2.9l118.6-68.5c2.7-1.6,5-5.4,5-8.6L881.1,215.4z"></path>
			<polygon class="st16" points="870.7,224.6 763,286.9 763.3,373.5 871,311.2    "></polygon>
			<path class="st18" d="M752.8,382.7l-0.3-93l-6.5-3.8l0.3,93c0,0.4,0,0.8,0.1,1.1c0.2,1,0.7,1.7,1.4,2.1l6.5,3.8     C753.4,385.3,752.8,384.2,752.8,382.7z"></path>
			<path class="st18" d="M879.7,212.2l-6.5-3.8c0,0,0,0,0,0c-0.1,0-0.2-0.1-0.3-0.1c-0.1,0-0.2-0.1-0.3-0.1c-0.1,0-0.1,0-0.2,0     c0,0,0,0,0,0c0,0,0,0-0.1,0c-0.1,0-0.2,0-0.3,0c-0.1,0-0.2,0-0.3,0c0,0-0.1,0-0.1,0c0,0-0.1,0-0.1,0c-0.1,0-0.1,0-0.2,0     c-0.1,0-0.3,0.1-0.4,0.1c-0.1,0-0.1,0-0.2,0.1c-0.1,0-0.1,0-0.2,0.1c-0.1,0-0.1,0-0.2,0.1c-0.2,0.1-0.5,0.2-0.7,0.3L751,277.2     c-0.5,0.3-1,0.7-1.5,1.2c-0.1,0-0.1,0.1-0.2,0.1c-0.1,0.1-0.1,0.1-0.2,0.2c-0.1,0.1-0.1,0.1-0.2,0.2c-0.1,0.1-0.1,0.1-0.2,0.2     c-0.1,0.2-0.3,0.3-0.4,0.5c0,0.1-0.1,0.1-0.1,0.2c0,0,0,0.1-0.1,0.1c0,0.1-0.1,0.1-0.1,0.2c-0.1,0.1-0.2,0.3-0.3,0.4     c-0.1,0.1-0.2,0.3-0.3,0.4c0,0,0,0,0,0c0,0,0,0,0,0c-0.1,0.1-0.1,0.2-0.2,0.4c-0.1,0.1-0.1,0.3-0.2,0.4c-0.1,0.1-0.1,0.3-0.2,0.4     c0,0,0,0,0,0c0,0,0,0,0,0c-0.1,0.2-0.1,0.3-0.2,0.5c-0.1,0.2-0.1,0.3-0.2,0.5c0,0.1,0,0.2-0.1,0.2c0,0,0,0.1,0,0.1     c0,0.1,0,0.1-0.1,0.2c-0.1,0.2-0.1,0.4-0.1,0.6c0,0.1,0,0.2-0.1,0.3c0,0.1,0,0.1,0,0.2c0,0.1,0,0.1,0,0.2c0,0.3-0.1,0.6-0.1,0.9     v0.1l6.5,3.8c0-0.4,0-0.8,0.1-1.1c0-0.1,0-0.1,0-0.2c0.1-0.4,0.1-0.7,0.3-1.1c0,0,0-0.1,0-0.1c0.1-0.4,0.3-0.8,0.4-1.2     c0,0,0,0,0,0c0.2-0.4,0.4-0.8,0.6-1.2c0,0,0,0,0,0c0.2-0.4,0.4-0.7,0.7-1.1c0,0,0-0.1,0.1-0.1c0.2-0.3,0.5-0.6,0.7-0.9     c0.1-0.1,0.1-0.1,0.2-0.2c0.1-0.1,0.2-0.2,0.4-0.3c0.5-0.5,1-0.9,1.5-1.2l118.6-68.5c0.3-0.2,0.6-0.3,0.9-0.4     c0.1,0,0.1,0,0.2-0.1c0.3-0.1,0.6-0.1,0.8-0.2c0,0,0.1,0,0.1,0c0.3,0,0.6,0,0.8,0c0,0,0,0,0,0C879.2,212,879.5,212.1,879.7,212.2     L879.7,212.2C879.7,212.2,879.7,212.2,879.7,212.2z"></path>
			<polygon class="st19" points="880.8,314.6 765.7,381.5 804,403.6 919.1,336.7    "></polygon>
			<polygon class="st18" points="844.3,432 844.2,439.9 967.9,368 967.9,360.2    "></polygon>
			<path class="st20" d="M804,403.6l-38.3-22.1l115.1-66.9l38.3,22.1L804,403.6L804,403.6z M880.2,309.4l-123.6,71.8l87.7,50.8     l123.6-71.9L880.2,309.4z"></path>
			<polygon class="st18" points="746.3,375 746.3,382.9 844.2,439.9 844.3,432    "></polygon>
			<g>
				<path class="st21" d="M780.4,377.7c0.2,0.1,0.6,0.1,0.8,0l2.4-1.4c0.2-0.1,0.2-0.3,0-0.5l-2.4-1.4c-0.2-0.1-0.6-0.1-0.8,0      l-2.4,1.4c-0.2,0.1-0.2,0.3,0,0.5L780.4,377.7z"></path>
				<path class="st21" d="M791.5,371.3c0.2,0.1,0.6,0.1,0.8,0l2.4-1.4c0.2-0.1,0.2-0.3,0-0.5l-2.4-1.4c-0.2-0.1-0.6-0.1-0.8,0      l-2.4,1.4c-0.2,0.1-0.2,0.3,0,0.5L791.5,371.3z"></path>
				<path class="st21" d="M787.8,373.4c0.2,0.1,0.6,0.1,0.8,0l2.4-1.4c0.2-0.1,0.2-0.3,0-0.5l-2.4-1.4c-0.2-0.1-0.6-0.1-0.8,0      l-2.4,1.4c-0.2,0.1-0.2,0.3,0,0.5L787.8,373.4z"></path>
				<path class="st21" d="M784.1,375.6c0.2,0.1,0.6,0.1,0.8,0l2.4-1.4c0.2-0.1,0.2-0.3,0-0.5l-2.4-1.4c-0.2-0.1-0.6-0.1-0.8,0      l-2.4,1.4c-0.2,0.1-0.2,0.3,0,0.5L784.1,375.6z"></path>
				<path class="st21" d="M790.2,373.6l-3.8,2.2c-0.3,0.2-0.3,0.5,0,0.7l3.8,2.2c0.3,0.2,0.9,0.2,1.2,0l3.8-2.2      c0.3-0.2,0.3-0.5,0-0.7l-3.8-2.2C791.1,373.4,790.5,373.4,790.2,373.6z"></path>
				<path class="st21" d="M776.8,379.8c0.2,0.1,0.6,0.1,0.8,0l2.4-1.4c0.2-0.1,0.2-0.3,0-0.5l-2.4-1.4c-0.2-0.1-0.6-0.1-0.8,0      l-2.4,1.4c-0.2,0.1-0.2,0.3,0,0.5L776.8,379.8z"></path>
				<path class="st21" d="M776.5,380l-2.4-1.4c-0.2-0.1-0.6-0.1-0.8,0l-2.4,1.4c-0.2,0.1-0.2,0.3,0,0.5l2.4,1.4      c0.2,0.1,0.6,0.1,0.8,0l2.4-1.4C776.7,380.4,776.7,380.1,776.5,380z"></path>
				<path class="st21" d="M784.6,376.9l-3.8,2.2c-0.3,0.2-0.3,0.5,0,0.7l3.8,2.2c0.4,0.2,0.9,0.2,1.2,0l3.8-2.2      c0.3-0.2,0.3-0.5,0-0.7l-3.8-2.2C785.5,376.7,784.9,376.7,784.6,376.9z"></path>
				<path class="st21" d="M792.6,383.9c0.3,0.2,0.9,0.2,1.2,0l3.8-2.2c0.3-0.2,0.4-0.5,0-0.7l-3.8-2.2c-0.3-0.2-0.9-0.2-1.3,0      l-3.8,2.2c-0.3,0.2-0.3,0.5,0,0.7L792.6,383.9z"></path>
				<path class="st21" d="M784.1,382.3l-3.8-2.2c-0.4-0.2-0.9-0.2-1.2,0l-3.8,2.2c-0.3,0.2-0.4,0.5,0,0.7l3.8,2.2      c0.3,0.2,0.9,0.2,1.3,0l3.8-2.2C784.4,382.8,784.4,382.5,784.1,382.3z"></path>
				<path class="st21" d="M791.8,384.4l-3.8-2.2c-0.3-0.2-0.9-0.2-1.2,0l-5.8,3.4c-0.3,0.2-0.3,0.5,0,0.7l3.8,2.2      c0.4,0.2,0.9,0.2,1.2,0l5.8-3.4C792.1,384.9,792.1,384.6,791.8,384.4z"></path>
				<path class="st21" d="M796.1,370.2l-3.8,2.2c-0.3,0.2-0.3,0.5,0,0.7l3.8,2.2c0.4,0.2,0.9,0.2,1.2,0l3.8-2.2      c0.3-0.2,0.3-0.5,0-0.7l-3.8-2.2C797,370,796.5,370,796.1,370.2z"></path>
				<path class="st21" d="M798.5,375.4l-3.8,2.2c-0.3,0.2-0.3,0.5,0,0.7l3.8,2.2c0.4,0.2,0.9,0.2,1.2,0l3.8-2.2      c0.3-0.2,0.4-0.5,0-0.7l-3.8-2.2C799.4,375.2,798.8,375.2,798.5,375.4z"></path>
				<path class="st21" d="M830.6,369.5l3.8-2.2c0.3-0.2,0.3-0.5,0-0.7l-3.8-2.2c-0.4-0.2-0.9-0.2-1.2,0l-3.8,2.2      c-0.3,0.2-0.4,0.5,0,0.7l3.8,2.2C829.7,369.7,830.3,369.7,830.6,369.5z"></path>
				<path class="st21" d="M800.2,386.5c0.4,0.2,0.9,0.2,1.2,0l3.8-2.2c0.3-0.2,0.3-0.5,0-0.7l-3.8-2.2c-0.3-0.2-0.9-0.2-1.2,0      l-3.8,2.2c-0.3,0.2-0.3,0.5,0,0.7L800.2,386.5z"></path>
				<path class="st21" d="M809.9,390.8c-0.3-0.2-0.9-0.2-1.2,0l-3.8,2.2c-0.3,0.2-0.3,0.5,0,0.7l3.8,2.2c0.3,0.2,0.9,0.2,1.2,0      l3.8-2.2c0.3-0.2,0.3-0.5,0-0.7L809.9,390.8z"></path>
				<path class="st21" d="M815.5,387.5c-0.3-0.2-0.9-0.2-1.2,0l-3.8,2.2c-0.3,0.2-0.3,0.5,0,0.7l3.8,2.2c0.3,0.2,0.9,0.2,1.2,0      l3.8-2.2c0.3-0.2,0.3-0.5,0-0.7L815.5,387.5z"></path>
				<path class="st21" d="M799.4,386.9l-3.8-2.2c-0.3-0.2-0.8-0.2-1.1-0.1l-7.7,4.5c-0.3,0.2-0.2,0.4,0.1,0.6l3.8,2.2      c0.3,0.2,0.9,0.2,1.1,0.1l7.7-4.5C799.8,387.4,799.8,387.1,799.4,386.9z"></path>
				<path class="st21" d="M808.7,388.7l-3.8-2.2c-0.3-0.2-0.9-0.2-1.3,0l-10.5,6.1c-0.3,0.2-0.4,0.5,0,0.7l3.8,2.2      c0.3,0.2,0.9,0.2,1.3,0l10.5-6.1C809.1,389.3,809.1,389,808.7,388.7z"></path>
				<path class="st21" d="M799,366.9c0.2,0.1,0.6,0.1,0.8,0l2.4-1.4c0.2-0.1,0.2-0.3,0-0.5l-2.4-1.4c-0.2-0.1-0.6-0.1-0.8,0      l-2.4,1.4c-0.2,0.1-0.2,0.3,0,0.5L799,366.9z"></path>
				<path class="st21" d="M795.2,369.1c0.2,0.1,0.6,0.1,0.8,0l2.4-1.4c0.2-0.1,0.2-0.3,0-0.5l-2.4-1.4c-0.2-0.1-0.6-0.1-0.8,0      l-2.4,1.4c-0.2,0.1-0.2,0.3,0,0.5L795.2,369.1z"></path>
				<path class="st21" d="M802.7,364.8c0.2,0.1,0.6,0.1,0.8,0l2.4-1.4c0.2-0.1,0.2-0.3,0-0.5l-2.4-1.4c-0.2-0.1-0.6-0.1-0.8,0      l-2.4,1.4c-0.2,0.1-0.2,0.3,0,0.5L802.7,364.8z"></path>
				<path class="st21" d="M810.1,360.5c0.2,0.1,0.6,0.1,0.8,0l2.4-1.4c0.2-0.1,0.2-0.3,0-0.5l-2.4-1.4c-0.2-0.1-0.6-0.1-0.8,0      l-2.4,1.4c-0.2,0.1-0.2,0.3,0,0.5L810.1,360.5z"></path>
				<path class="st21" d="M806.4,362.6c0.2,0.1,0.6,0.1,0.8,0l2.4-1.4c0.2-0.1,0.2-0.3,0-0.5l-2.4-1.4c-0.2-0.1-0.6-0.1-0.8,0      l-2.4,1.4c-0.2,0.1-0.2,0.3,0,0.5L806.4,362.6z"></path>
				<path class="st21" d="M835.8,345.5c0.2,0.1,0.6,0.1,0.8,0l2.4-1.4c0.2-0.1,0.2-0.3,0-0.5l-2.4-1.4c-0.2-0.1-0.6-0.1-0.8,0      l-2.4,1.4c-0.2,0.1-0.2,0.3,0,0.5L835.8,345.5z"></path>
				<path class="st21" d="M832.1,347.7c0.2,0.1,0.6,0.1,0.8,0l2.4-1.4c0.2-0.1,0.2-0.3,0-0.5l-2.4-1.4c-0.2-0.1-0.6-0.1-0.8,0      l-2.4,1.4c-0.2,0.1-0.2,0.3,0,0.5L832.1,347.7z"></path>
				<path class="st21" d="M828.3,349.9c0.2,0.1,0.6,0.1,0.8,0l2.4-1.4c0.2-0.1,0.2-0.3,0-0.5l-2.4-1.4c-0.2-0.1-0.6-0.1-0.8,0      l-2.4,1.4c-0.2,0.1-0.2,0.3,0,0.5L828.3,349.9z"></path>
				<path class="st21" d="M836.9,346.5l-3.8,2.2c-0.3,0.2-0.4,0.5,0,0.7l3.8,2.2c0.3,0.2,0.9,0.2,1.3,0l3.8-2.2      c0.3-0.2,0.3-0.5,0-0.7l-3.8-2.2C837.7,346.3,837.2,346.3,836.9,346.5z"></path>
				<path class="st21" d="M824.7,352c0.2,0.1,0.6,0.1,0.8,0l2.4-1.4c0.2-0.1,0.2-0.3,0-0.5l-2.4-1.4c-0.2-0.1-0.6-0.1-0.8,0      l-2.4,1.4c-0.2,0.1-0.2,0.3,0,0.5L824.7,352z"></path>
				<path class="st21" d="M845.1,348.3l-3.8,2.2c-0.3,0.2-0.3,0.5,0,0.7l3.8,2.2c0.3,0.2,0.9,0.2,1.2,0l3.8-2.2      c0.3-0.2,0.3-0.5,0-0.7l-3.8-2.2C846,348.1,845.4,348.1,845.1,348.3z"></path>
				<path class="st21" d="M821.2,354c0.2,0.1,0.6,0.1,0.8,0l2.4-1.4c0.2-0.1,0.2-0.3,0-0.5l-2.4-1.4c-0.2-0.1-0.6-0.1-0.8,0      l-2.4,1.4c-0.2,0.1-0.2,0.3,0,0.5L821.2,354z"></path>
				<path class="st21" d="M831,349.9l-3.8,2.2c-0.3,0.2-0.3,0.5,0,0.7l3.8,2.2c0.4,0.2,0.9,0.2,1.2,0l3.8-2.2c0.3-0.2,0.3-0.5,0-0.7      l-3.8-2.2C831.9,349.7,831.4,349.7,831,349.9z"></path>
				<path class="st21" d="M853.9,356l3.8-2.2c0.3-0.2,0.3-0.5,0-0.7l-3.8-2.2c-0.3-0.2-0.9-0.2-1.2,0l-3.8,2.2      c-0.3,0.2-0.3,0.5,0,0.7l3.8,2.2C853,356.2,853.6,356.2,853.9,356z"></path>
				<path class="st21" d="M839.3,351.7l-3.8,2.2c-0.3,0.2-0.3,0.5,0,0.7l3.8,2.2c0.3,0.2,0.9,0.2,1.2,0l3.8-2.2      c0.3-0.2,0.3-0.5,0-0.7l-3.8-2.2C840.1,351.5,839.6,351.5,839.3,351.7z"></path>
				<path class="st21" d="M863.2,357.8l3.8-2.2c0.3-0.2,0.3-0.5,0-0.7l-3.8-2.2c-0.4-0.2-0.9-0.2-1.2,0l-3.8,2.2      c-0.3,0.2-0.3,0.5,0,0.7l3.8,2.2C862.3,358,862.9,358,863.2,357.8z"></path>
				<path class="st21" d="M825.2,353.3l-3.8,2.2c-0.3,0.2-0.3,0.5,0,0.7l3.8,2.2c0.4,0.2,0.9,0.2,1.2,0l3.8-2.2      c0.3-0.2,0.3-0.5,0-0.7l-3.8-2.2C826.1,353,825.6,353.1,825.2,353.3z"></path>
				<path class="st21" d="M848.1,359.4l3.8-2.2c0.3-0.2,0.3-0.5,0-0.7l-3.8-2.2c-0.3-0.2-0.9-0.2-1.2,0l-3.8,2.2      c-0.3,0.2-0.4,0.5,0,0.7l3.8,2.2C847.2,359.6,847.7,359.6,848.1,359.4z"></path>
				<path class="st21" d="M857.4,361.2l3.8-2.2c0.3-0.2,0.3-0.5,0-0.7l-3.8-2.2c-0.3-0.2-0.9-0.2-1.2,0l-3.8,2.2      c-0.3,0.2-0.3,0.5,0,0.7l3.8,2.2C856.5,361.4,857.1,361.4,857.4,361.2z"></path>
				<path class="st21" d="M819.4,356.6l-3.8,2.2c-0.3,0.2-0.4,0.5,0,0.7l3.8,2.2c0.3,0.2,0.9,0.2,1.3,0l3.8-2.2      c0.3-0.2,0.3-0.5,0-0.7l-3.8-2.2C820.3,356.4,819.7,356.4,819.4,356.6z"></path>
				<path class="st21" d="M827.6,358.4l-3.8,2.2c-0.3,0.2-0.3,0.5,0,0.7l3.8,2.2c0.3,0.2,0.9,0.2,1.2,0l3.8-2.2      c0.3-0.2,0.3-0.5,0-0.7l-3.8-2.2C828.5,358.3,827.9,358.3,827.6,358.4z"></path>
				<path class="st21" d="M851.6,364.6l3.8-2.2c0.3-0.2,0.3-0.5,0-0.7l-3.8-2.2c-0.3-0.2-0.9-0.2-1.2,0l-3.8,2.2      c-0.3,0.2-0.4,0.5,0,0.7l3.8,2.2C850.7,364.8,851.2,364.8,851.6,364.6z"></path>
				<path class="st21" d="M813.6,360l-3.8,2.2c-0.3,0.2-0.3,0.5,0,0.7l3.8,2.2c0.3,0.2,0.9,0.2,1.2,0l3.8-2.2c0.3-0.2,0.3-0.5,0-0.7      l-3.8-2.2C814.5,359.8,813.9,359.8,813.6,360z"></path>
				<path class="st21" d="M821.8,361.8L818,364c-0.3,0.2-0.3,0.5,0,0.7l3.8,2.2c0.3,0.2,0.9,0.2,1.2,0l3.8-2.2      c0.3-0.2,0.3-0.5,0-0.7l-3.8-2.2C822.7,361.6,822.1,361.6,821.8,361.8z"></path>
				<path class="st21" d="M857.7,363c-0.3-0.2-0.9-0.2-1.2,0l-3.8,2.2c-0.3,0.2-0.3,0.5,0,0.7l3.8,2.2c0.3,0.2,0.9,0.2,1.2,0      l3.8-2.2c0.3-0.2,0.3-0.5,0-0.7L857.7,363z"></path>
				<path class="st21" d="M807.7,363.4l-3.8,2.2c-0.3,0.2-0.3,0.5,0,0.7l3.8,2.2c0.3,0.2,0.9,0.2,1.2,0l3.8-2.2      c0.3-0.2,0.3-0.5,0-0.7l-3.8-2.2C808.6,363.2,808.1,363.2,807.7,363.4z"></path>
				<path class="st21" d="M816,365.2l-3.8,2.2c-0.3,0.2-0.3,0.5,0,0.7l3.8,2.2c0.3,0.2,0.9,0.2,1.2,0l3.8-2.2c0.3-0.2,0.4-0.5,0-0.7      l-3.8-2.2C816.9,365,816.3,365,816,365.2z"></path>
				<path class="st21" d="M839.9,371.4l3.8-2.2c0.3-0.2,0.3-0.5,0-0.7l-3.8-2.2c-0.4-0.2-0.9-0.2-1.2,0l-3.8,2.2      c-0.3,0.2-0.3,0.5,0,0.7l3.8,2.2C839,371.6,839.6,371.6,839.9,371.4z"></path>
				<path class="st21" d="M801.9,366.8l-3.8,2.2c-0.3,0.2-0.4,0.5,0,0.7l3.8,2.2c0.3,0.2,0.9,0.2,1.3,0l3.8-2.2      c0.3-0.2,0.3-0.5,0-0.7l-3.8-2.2C802.8,366.6,802.3,366.6,801.9,366.8z"></path>
				<path class="st21" d="M824.8,372.9l3.8-2.2c0.3-0.2,0.3-0.5,0-0.7l-3.8-2.2c-0.3-0.2-0.9-0.2-1.2,0l-3.8,2.2      c-0.3,0.2-0.3,0.5,0,0.7l3.8,2.2C823.9,373.1,824.4,373.1,824.8,372.9z"></path>
				<path class="st21" d="M810.1,368.6l-3.8,2.2c-0.3,0.2-0.3,0.5,0,0.7l3.8,2.2c0.3,0.2,0.9,0.2,1.2,0l3.8-2.2      c0.3-0.2,0.3-0.5,0-0.7l-3.8-2.2C811,368.4,810.5,368.4,810.1,368.6z"></path>
				<path class="st21" d="M834.1,374.7l3.8-2.2c0.3-0.2,0.3-0.5,0-0.7l-3.8-2.2c-0.4-0.2-0.9-0.2-1.2,0l-3.8,2.2      c-0.3,0.2-0.4,0.5,0,0.7l3.8,2.2C833.2,374.9,833.8,374.9,834.1,374.7z"></path>
				<path class="st21" d="M819,376.3l3.8-2.2c0.3-0.2,0.3-0.5,0-0.7l-3.8-2.2c-0.3-0.2-0.9-0.2-1.2,0l-3.8,2.2      c-0.3,0.2-0.3,0.5,0,0.7l3.8,2.2C818.1,376.5,818.6,376.5,819,376.3z"></path>
				<path class="st21" d="M828.3,378.1l3.8-2.2c0.3-0.2,0.3-0.5,0-0.7l-3.8-2.2c-0.3-0.2-0.9-0.2-1.2,0l-3.8,2.2      c-0.3,0.2-0.3,0.5,0,0.7l3.8,2.2C827.4,378.3,827.9,378.3,828.3,378.1z"></path>
				<path class="st21" d="M813.2,379.7l3.8-2.2c0.3-0.2,0.3-0.5,0-0.7l-3.8-2.2c-0.3-0.2-0.9-0.2-1.2,0l-3.8,2.2      c-0.3,0.2-0.4,0.5,0,0.7l3.8,2.2C812.2,379.9,812.8,379.9,813.2,379.7z"></path>
				<path class="st21" d="M822.5,381.5l3.8-2.2c0.3-0.2,0.3-0.5,0-0.7l-3.8-2.2c-0.3-0.2-0.9-0.2-1.2,0l-3.8,2.2      c-0.3,0.2-0.3,0.5,0,0.7l3.8,2.2C821.6,381.7,822.1,381.7,822.5,381.5z"></path>
				<path class="st21" d="M806.1,383c0.3,0.2,0.9,0.2,1.2,0l3.8-2.2c0.3-0.2,0.3-0.5,0-0.7l-3.8-2.2c-0.4-0.2-0.9-0.2-1.2,0      l-3.8,2.2c-0.3,0.2-0.3,0.5,0,0.7L806.1,383z"></path>
				<path class="st21" d="M816.7,384.9l3.8-2.2c0.3-0.2,0.3-0.5,0-0.7l-3.8-2.2c-0.3-0.2-0.9-0.2-1.2,0l-3.8,2.2      c-0.3,0.2-0.4,0.5,0,0.7l3.8,2.2C815.7,385.1,816.3,385.1,816.7,384.9z"></path>
				<path class="st21" d="M851.7,366.5c-0.3-0.2-0.9-0.2-1.4,0.1l-27.8,16.2c-0.4,0.2-0.5,0.6-0.1,0.8l3.8,2.2      c0.3,0.2,1,0.2,1.4-0.1l27.8-16.2c0.4-0.2,0.5-0.6,0.1-0.8L851.7,366.5z"></path>
				<path class="st21" d="M809.5,388.3c0.3,0.2,0.9,0.2,1.2,0l3.8-2.2c0.3-0.2,0.3-0.5,0-0.7l-3.8-2.2c-0.4-0.2-0.9-0.2-1.2,0      l-3.8,2.2c-0.3,0.2-0.3,0.5,0,0.7L809.5,388.3z"></path>
				<path class="st21" d="M821.4,384.1c-0.3-0.2-0.9-0.2-1.2,0l-3.8,2.2c-0.3,0.2-0.3,0.5,0,0.7l3.8,2.2c0.3,0.2,0.9,0.2,1.2,0      l3.8-2.2c0.3-0.2,0.3-0.5,0-0.7L821.4,384.1z"></path>
				<path class="st21" d="M804.3,372l-3.8,2.2c-0.3,0.2-0.3,0.5,0,0.7l3.8,2.2c0.3,0.2,0.9,0.2,1.2,0l3.8-2.2c0.3-0.2,0.3-0.5,0-0.7      l-3.8-2.2C805.2,371.8,804.7,371.8,804.3,372z"></path>
				<path class="st21" d="M836.4,366.1l3.8-2.2c0.3-0.2,0.3-0.5,0-0.7l-3.8-2.2c-0.3-0.2-0.9-0.2-1.2,0l-3.8,2.2      c-0.3,0.2-0.3,0.5,0,0.7l3.8,2.2C835.5,366.3,836.1,366.3,836.4,366.1z"></path>
				<path class="st21" d="M845.8,368l3.8-2.2c0.3-0.2,0.3-0.5,0-0.7l-3.8-2.2c-0.4-0.2-0.9-0.2-1.2,0l-3.8,2.2      c-0.3,0.2-0.3,0.5,0,0.7l3.8,2.2C844.9,368.2,845.4,368.2,845.8,368z"></path>
				<path class="st21" d="M842.3,362.7l3.8-2.2c0.3-0.2,0.3-0.5,0-0.7l-3.8-2.2c-0.3-0.2-0.9-0.2-1.2,0l-3.8,2.2      c-0.3,0.2-0.3,0.5,0,0.7l3.8,2.2C841.4,362.9,841.9,362.9,842.3,362.7z"></path>
				<path class="st21" d="M833.4,355.1l-3.8,2.2c-0.3,0.2-0.3,0.5,0,0.7l3.8,2.2c0.3,0.2,0.9,0.2,1.2,0l3.8-2.2      c0.3-0.2,0.4-0.5,0-0.7l-3.8-2.2C834.3,354.9,833.8,354.9,833.4,355.1z"></path>
				<path class="st21" d="M866.4,335.9l-8.1,4.7c-0.3,0.2-0.2,0.5,0.1,0.7l3.8,2.2c0.4,0.2,0.8,0.2,1.1,0.1l8.1-4.7      c0.3-0.2,0.2-0.4-0.1-0.6l-3.8-2.2C867.2,335.8,866.6,335.8,866.4,335.9z"></path>
				<path class="st21" d="M856.7,341.5l-3.8,2.2c-0.3,0.2-0.3,0.5,0,0.7l3.8,2.2c0.4,0.2,0.9,0.2,1.2,0l3.8-2.2      c0.3-0.2,0.3-0.5,0-0.7l-3.8-2.2C857.6,341.3,857,341.3,856.7,341.5z"></path>
				<path class="st21" d="M879.8,341.1l3.8-2.2c0.3-0.2,0.3-0.5,0-0.7l-3.8-2.2c-0.3-0.2-0.9-0.2-1.2,0l-3.8,2.2      c-0.3,0.2-0.3,0.5,0,0.7l3.8,2.2C878.9,341.3,879.5,341.3,879.8,341.1z"></path>
				<polygon class="st21" points="882.7,351.2 882.1,351.2 877.9,353.6 877.9,354 879.7,355 880.3,355 884.6,352.5 884.5,352.2           "></polygon>
				<polygon class="st21" points="879.3,349.6 875.1,352 875.1,352.4 876.9,353.4 877.5,353.4 881.7,350.9 881.7,350.6 879.9,349.6           "></polygon>
				<polygon class="st21" points="877.4,354.3 876.8,354.3 872.5,356.7 872.6,357.1 874.4,358.1 874.9,358.1 879.2,355.6       879.2,355.3     "></polygon>
				<path class="st21" d="M865.7,349.3l11.6-6.8c0.4-0.2,0.4-0.6,0.1-0.8l-3.8-2.2c-0.3-0.2-0.9-0.2-1.3,0.1l-11.6,6.8      c-0.4,0.2-0.4,0.6-0.1,0.8l3.8,2.2C864.7,349.5,865.4,349.5,865.7,349.3z"></path>
				<path class="st21" d="M859.7,352.6l3.8-2.2c0.3-0.2,0.3-0.5,0-0.7l-3.8-2.2c-0.3-0.2-0.9-0.2-1.2,0l-3.8,2.2      c-0.3,0.2-0.3,0.5,0,0.7l3.8,2.2C858.8,352.8,859.4,352.8,859.7,352.6z"></path>
				<path class="st21" d="M883.6,345.3l-3.8-2.2c-0.4-0.2-0.9-0.2-1.2,0c-4.9,2.8-9.7,5.6-14.5,8.4c-0.3,0.2-0.4,0.5,0,0.7l3.8,2.2      c0.4,0.2,0.9,0.2,1.3,0c4.8-2.8,9.6-5.6,14.5-8.4C883.9,345.8,883.9,345.5,883.6,345.3z"></path>
				<path class="st21" d="M842.7,343.1l-3.8,2.2c-0.3,0.2-0.3,0.5,0,0.7l3.8,2.2c0.3,0.2,0.9,0.2,1.2,0l3.8-2.2      c0.3-0.2,0.3-0.5,0-0.7l-3.8-2.2C843.6,342.9,843,342.9,842.7,343.1z"></path>
				<path class="st21" d="M850.6,336.9c0.2,0.1,0.6,0.1,0.8,0l2.4-1.4c0.2-0.1,0.2-0.3,0-0.5l-2.4-1.4c-0.2-0.1-0.6-0.1-0.8,0      l-2.4,1.4c-0.2,0.1-0.2,0.3,0,0.5L850.6,336.9z"></path>
				<path class="st21" d="M846.9,339.1c0.2,0.1,0.6,0.1,0.8,0l2.4-1.4c0.2-0.1,0.2-0.3,0-0.5l-2.4-1.4c-0.2-0.1-0.6-0.1-0.8,0      l-2.4,1.4c-0.2,0.1-0.2,0.3,0,0.5L846.9,339.1z"></path>
				<path class="st21" d="M860.6,332.7l-10,5.8c-0.3,0.2-0.4,0.5,0,0.7l3.8,2.2c0.4,0.2,0.9,0.2,1.3,0l10-5.8c0.3-0.2,0.3-0.5,0-0.7      l-3.8-2.2C861.5,332.5,860.9,332.5,860.6,332.7z"></path>
				<path class="st21" d="M848.5,339.7l-3.8,2.2c-0.3,0.2-0.3,0.5,0,0.7l3.8,2.2c0.3,0.2,0.9,0.2,1.2,0l3.8-2.2      c0.3-0.2,0.3-0.5,0-0.7l-3.8-2.2C849.4,339.5,848.9,339.5,848.5,339.7z"></path>
				<path class="st21" d="M850.9,344.9l-3.8,2.2c-0.3,0.2-0.3,0.5,0,0.7l3.8,2.2c0.3,0.2,0.9,0.2,1.2,0l3.8-2.2      c0.3-0.2,0.4-0.5,0-0.7l-3.8-2.2C851.8,344.7,851.2,344.7,850.9,344.9z"></path>
				<path class="st21" d="M897.9,339.6c-0.3-0.2-0.9-0.2-1.2,0l-3.8,2.2c-0.3,0.2-0.3,0.5,0,0.7l3.8,2.2c0.3,0.2,0.9,0.2,1.2,0      l3.8-2.2c0.3-0.2,0.3-0.5,0-0.7L897.9,339.6z"></path>
				<path class="st21" d="M880.4,319.6c0.2,0.1,0.6,0.1,0.8,0l2.4-1.4c0.2-0.1,0.2-0.3,0-0.5l-2.4-1.4c-0.2-0.1-0.6-0.1-0.8,0      l-2.4,1.4c-0.2,0.1-0.2,0.3,0,0.5L880.4,319.6z"></path>
				<path class="st21" d="M876.7,321.7c0.2,0.1,0.6,0.1,0.8,0l2.4-1.4c0.2-0.1,0.2-0.3,0-0.5l-2.4-1.4c-0.2-0.1-0.6-0.1-0.8,0      l-2.4,1.4c-0.2,0.1-0.2,0.3,0,0.5L876.7,321.7z"></path>
				<path class="st21" d="M880.7,321.9l3.8,2.2c0.3,0.2,0.9,0.2,1.2,0l3.8-2.2c0.3-0.2,0.3-0.5,0-0.7l-3.8-2.2      c-0.3-0.2-0.9-0.2-1.2,0l-3.8,2.2C880.3,321.4,880.3,321.7,880.7,321.9z"></path>
				<path class="st21" d="M879.8,322.4c-0.3-0.2-0.9-0.2-1.2,0l-3.8,2.2c-0.3,0.2-0.3,0.5,0,0.7l3.8,2.2c0.3,0.2,0.9,0.2,1.2,0      l3.8-2.2c0.3-0.2,0.3-0.5,0-0.7L879.8,322.4z"></path>
				<path class="st21" d="M885.4,325.6c-0.3-0.2-0.9-0.2-1.2,0l-3.8,2.2c-0.3,0.2-0.3,0.5,0,0.7l3.8,2.2c0.3,0.2,0.9,0.2,1.2,0      l3.8-2.2c0.3-0.2,0.3-0.5,0-0.7L885.4,325.6z"></path>
				<path class="st21" d="M886.2,325.1c3.3,1.9,6.6,3.8,10,5.8c0.3,0.2,0.9,0.2,1.2,0l3.8-2.2c0.3-0.2,0.3-0.5,0-0.7      c-3.3-1.9-6.6-3.8-10-5.8c-0.3-0.2-0.9-0.2-1.2,0l-3.8,2.2C885.9,324.6,885.9,324.9,886.2,325.1z"></path>
				<path class="st21" d="M891.6,334.3l3.8-2.2c0.3-0.2,0.3-0.5,0-0.7l-3.8-2.2c-0.3-0.2-0.9-0.2-1.2,0l-3.8,2.2      c-0.3,0.2-0.3,0.5,0,0.7l3.8,2.2C890.7,334.5,891.2,334.5,891.6,334.3z"></path>
				<path class="st21" d="M897.7,337.8l3.8-2.2c0.3-0.2,0.3-0.5,0-0.7l-3.8-2.2c-0.4-0.2-0.9-0.2-1.2,0l-3.8,2.2      c-0.3,0.2-0.4,0.5,0,0.7l3.8,2.2C896.8,338,897.3,338,897.7,337.8z"></path>
				<path class="st21" d="M913.6,335c-3.3-1.9-6.6-3.8-10-5.8c-0.3-0.2-0.9-0.2-1.2,0l-3.8,2.2c-0.3,0.2-0.3,0.5,0,0.7      c3.3,1.9,6.6,3.8,10,5.8c0.3,0.2,0.9,0.2,1.2,0l3.8-2.2C913.9,335.5,913.9,335.2,913.6,335z"></path>
				<path class="st21" d="M903.8,336.2c-0.3-0.2-0.9-0.2-1.2,0l-3.8,2.2c-0.3,0.2-0.3,0.5,0,0.7l3.8,2.2c0.3,0.2,0.9,0.2,1.2,0      l3.8-2.2c0.3-0.2,0.3-0.5,0-0.7L903.8,336.2z"></path>
				<path class="st21" d="M885.7,337.7l3.8-2.2c0.3-0.2,0.3-0.5,0-0.7l-3.8-2.2c-0.3-0.2-0.9-0.2-1.2,0l-3.8,2.2      c-0.3,0.2-0.3,0.5,0,0.7l3.8,2.2C884.8,337.9,885.4,337.9,885.7,337.7z"></path>
				<path class="st21" d="M879.6,334.1l3.8-2.2c0.3-0.2,0.4-0.5,0-0.7l-3.8-2.2c-0.3-0.2-0.9-0.2-1.3,0l-3.8,2.2      c-0.3,0.2-0.3,0.5,0,0.7l3.8,2.2C878.7,334.3,879.2,334.3,879.6,334.1z"></path>
				<path class="st21" d="M872.4,332.4l-3.8,2.2c-0.3,0.2-0.3,0.5,0,0.7l3.8,2.2c0.4,0.2,0.9,0.2,1.2,0l3.8-2.2      c0.3-0.2,0.3-0.5,0-0.7l-3.8-2.2C873.3,332.2,872.8,332.2,872.4,332.4z"></path>
				<path class="st21" d="M872.6,325.7l-3.8,2.2c-0.3,0.2-0.3,0.5,0,0.7l3.8,2.2c0.4,0.2,0.9,0.2,1.2,0l3.8-2.2      c0.3-0.2,0.3-0.5,0-0.7l-3.8-2.2C873.6,325.5,873,325.5,872.6,325.7z"></path>
				<path class="st21" d="M858,332.6c0.2,0.1,0.6,0.1,0.8,0l2.4-1.4c0.2-0.1,0.2-0.3,0-0.5l-2.4-1.4c-0.2-0.1-0.6-0.1-0.8,0      l-2.4,1.4c-0.2,0.1-0.2,0.3,0,0.5L858,332.6z"></path>
				<path class="st21" d="M873,323.9c0.2,0.1,0.6,0.1,0.8,0l2.4-1.4c0.2-0.1,0.2-0.3,0-0.5l-2.4-1.4c-0.2-0.1-0.6-0.1-0.8,0      l-2.4,1.4c-0.2,0.1-0.2,0.3,0,0.5L873,323.9z"></path>
				<path class="st21" d="M869.3,326c0.2,0.1,0.6,0.1,0.8,0l2.4-1.4c0.2-0.1,0.2-0.3,0-0.5l-2.4-1.4c-0.2-0.1-0.6-0.1-0.8,0      l-2.4,1.4c-0.2,0.1-0.2,0.3,0,0.5L869.3,326z"></path>
				<path class="st21" d="M865.4,328.3c0.2,0.1,0.6,0.1,0.8,0l2.4-1.4c0.2-0.1,0.2-0.3,0-0.5l-2.4-1.4c-0.2-0.1-0.6-0.1-0.8,0      l-2.4,1.4c-0.2,0.1-0.2,0.3,0,0.5L865.4,328.3z"></path>
				<path class="st21" d="M861.7,330.5c0.2,0.1,0.6,0.1,0.8,0l2.4-1.4c0.2-0.1,0.2-0.3,0-0.5l-2.4-1.4c-0.2-0.1-0.6-0.1-0.8,0      l-2.4,1.4c-0.2,0.1-0.2,0.3,0,0.5L861.7,330.5z"></path>
				<path class="st21" d="M866.8,329.1l-3.8,2.2c-0.3,0.2-0.3,0.5,0,0.7l3.8,2.2c0.3,0.2,0.9,0.2,1.2,0l3.8-2.2      c0.3-0.2,0.3-0.5,0-0.7l-3.8-2.2C867.6,328.9,867.1,328.9,866.8,329.1z"></path>
				<polygon class="st21" points="888.2,348 887.6,348 883.3,350.5 883.3,350.8 885.1,351.9 885.7,351.9 890,349.4 890,349     "></polygon>
				<path class="st21" d="M892.1,343c-0.3-0.2-0.9-0.2-1.2,0l-3.8,2.2c-0.3,0.2-0.3,0.5,0,0.7l3.8,2.2c0.3,0.2,0.9,0.2,1.2,0      l3.8-2.2c0.3-0.2,0.3-0.5,0-0.7L892.1,343z"></path>
				<path class="st21" d="M886,344.6l3.8-2.2c0.3-0.2,0.3-0.5,0-0.7l-3.8-2.2c-0.3-0.2-0.9-0.2-1.2,0l-3.8,2.2      c-0.3,0.2-0.3,0.5,0,0.7l3.8,2.2C885.1,344.8,885.6,344.8,886,344.6z"></path>
				<path class="st21" d="M891.8,341.2l3.8-2.2c0.3-0.2,0.3-0.5,0-0.7l-3.8-2.2c-0.4-0.2-0.9-0.2-1.2,0l-3.8,2.2      c-0.3,0.2-0.3,0.5,0,0.7l3.8,2.2C890.9,341.4,891.5,341.4,891.8,341.2z"></path>
				<path class="st21" d="M804.3,394c-0.3-0.2-0.9-0.2-1.2,0l-3.8,2.2c-0.3,0.2-0.3,0.5,0,0.7l3.8,2.2c0.3,0.2,0.9,0.2,1.2,0      l3.8-2.2c0.3-0.2,0.3-0.5,0-0.7L804.3,394z"></path>
				<path class="st21" d="M869.3,356.2c-0.3-0.2-0.9-0.2-1.2,0l-3.8,2.2c-0.3,0.2-0.3,0.5,0,0.7l3.8,2.2c0.3,0.2,0.9,0.2,1.2,0      l3.8-2.2c0.3-0.2,0.3-0.5,0-0.7L869.3,356.2z"></path>
				<path class="st21" d="M863.5,359.6c-0.3-0.2-0.9-0.2-1.2,0l-3.8,2.2c-0.3,0.2-0.3,0.5,0,0.7l3.8,2.2c0.3,0.2,0.9,0.2,1.2,0      l3.8-2.2c0.3-0.2,0.3-0.5,0-0.7L863.5,359.6z"></path>
				<path class="st21" d="M817.5,356.2c0.2,0.1,0.6,0.1,0.8,0l2.4-1.4c0.2-0.1,0.2-0.3,0-0.5l-2.4-1.4c-0.2-0.1-0.6-0.1-0.8,0      l-2.4,1.4c-0.2,0.1-0.2,0.3,0,0.5L817.5,356.2z"></path>
				<path class="st21" d="M813.8,358.3c0.2,0.1,0.6,0.1,0.8,0l2.4-1.4c0.2-0.1,0.2-0.3,0-0.5l-2.4-1.4c-0.2-0.1-0.6-0.1-0.8,0      l-2.4,1.4c-0.2,0.1-0.2,0.3,0,0.5L813.8,358.3z"></path>
				<path class="st21" d="M839.5,343.4c0.2,0.1,0.6,0.1,0.8,0l2.4-1.4c0.2-0.1,0.2-0.3,0-0.5l-2.4-1.4c-0.2-0.1-0.6-0.1-0.8,0      l-2.4,1.4c-0.2,0.1-0.2,0.3,0,0.5L839.5,343.4z"></path>
				<path class="st21" d="M843.2,341.2c0.2,0.1,0.6,0.1,0.8,0l2.4-1.4c0.2-0.1,0.2-0.3,0-0.5L844,338c-0.2-0.1-0.6-0.1-0.8,0      l-2.4,1.4c-0.2,0.1-0.2,0.3,0,0.5L843.2,341.2z"></path>
				<path class="st21" d="M854.3,334.8c0.2,0.1,0.6,0.1,0.8,0l2.4-1.4c0.2-0.1,0.2-0.3,0-0.5l-2.4-1.4c-0.2-0.1-0.6-0.1-0.8,0      l-2.4,1.4c-0.2,0.1-0.2,0.3,0,0.5L854.3,334.8z"></path>
			</g>
			<polygon class="st18" points="892.5,368.1 855.4,389.7 876.6,401.9 913.7,380.4    "></polygon>
		</g>
	</g>
	<path class="st21" d="M770.4,419.1c8.1-3.2,21-2.2,29.8,1.7c26,11.3,36.3,23.9,18.8,35c-10.6,6.7-32,4.8-49.1-14.7   C766.1,436.8,762.2,422.2,770.4,419.1z"></path>
	<g>
		<g>
			<path class="st11" d="M933.6,366.3c-3.8-3.7-12.2-11-16.9-13.3c-4.7-2.3-7.2-1.3-9.8,0.2c-2.7,1.5-6.5,6.6-6.2,10.2     c0.3,3.7,3.2,9,5.7,12.3c2.4,3.3,9.4,6.5,12.9,7.1l10.6,1.8l9.2-9.4C937.3,372.3,937.4,370.1,933.6,366.3z"></path>
			<path class="st11" d="M905.3,362c-12.3-7.7-17.3-12.2-20.1-9.1c-1.6,1.8,9.8,11.8,21.5,20.6L905.3,362z"></path>
		</g>
		<path class="st26" d="M938,372.1c-5.5-0.1-11.1,6.3-13,14.3c10.1,7.2,18.9,14.1,28.5,22l9.3-21C954.8,382,946.3,377.1,938,372.1z"></path>
	</g>
	<g>
		<path class="st27" d="M1037.9,315.7c12.8,12,0.9,87.6,0,105.1c-7.9,12.6-21.1,8-27.9-0.6l-4.1-44.7    C1007.4,346.6,1029.8,312,1037.9,315.7z"></path>
		<path class="st28" d="M1036.1,313.5c-9.3-5.4-39.1,0.4-67.8,16.9c-25,14.4-47.3,32.5-40.6,63.8c4.2,19.2,14.2,43.5,18.1,72    c0.6,4.3-1.1,17.6-4.8,31.3c-2.7,15,21.2,19.4,36.4,18.4c29.4-2,62.1-19.3,57.8-44c-5.2-8-14.9-18.2-12.1-43.5    c2.5-22.2,10.4-46.3,14.6-68.6C1040.9,343.1,1043,322.6,1036.1,313.5z"></path>
		<g>
			<g>
				<path class="st6" d="M966.7,469.4l0.2,72c0,0.6,0.1,1.2,0.2,1.7c0,0,0,0,0,0c0.1,0.5,0.3,1,0.5,1.4c0,0,0,0,0,0      c0.1,0.3,0.3,0.5,0.5,0.7c0.4,0.5,0.7,0.9,1.2,1.2l-12.3-7.2c-0.5-0.3-0.9-0.7-1.2-1.2c0-0.1-0.1-0.1-0.2-0.2      c-0.1-0.2-0.2-0.4-0.3-0.5c0,0,0,0,0,0c0,0,0,0,0,0c-0.1-0.1-0.1-0.3-0.2-0.4c-0.1-0.1-0.1-0.3-0.1-0.4c0-0.1-0.1-0.3-0.1-0.4      c0-0.1,0-0.1,0-0.2c0,0,0,0,0,0c0-0.1,0-0.1,0-0.2c0-0.1,0-0.3-0.1-0.4c0-0.1,0-0.3,0-0.4c0-0.1,0-0.2,0-0.4c0-0.1,0-0.3,0-0.4      c0,0,0,0,0,0l-0.2-72L966.7,469.4z"></path>
				<path class="st8" d="M971.6,458.1C971.6,458.1,971.6,458.1,971.6,458.1c-0.5,0.5-0.9,1.1-1.4,1.6c0,0,0,0,0,0      c-0.4,0.6-0.8,1.2-1.1,1.8c0,0,0,0.1-0.1,0.1c-0.3,0.6-0.7,1.2-0.9,1.9c0,0,0,0,0,0c-0.3,0.7-0.5,1.3-0.7,2c0,0,0,0,0,0      c-0.2,0.7-0.4,1.3-0.5,2c0,0,0,0,0,0c-0.1,0.7-0.2,1.3-0.2,1.9l-12.3-7.2c0-0.1,0-0.2,0-0.4c0-0.1,0-0.2,0-0.4      c0-0.1,0-0.3,0-0.4c0-0.1,0-0.3,0-0.4c0-0.1,0-0.3,0.1-0.4c0,0,0,0,0,0c0,0,0,0,0,0c0-0.1,0-0.2,0.1-0.4c0-0.1,0.1-0.3,0.1-0.4      c0-0.1,0.1-0.3,0.1-0.4c0-0.1,0.1-0.3,0.1-0.4c0-0.1,0.1-0.2,0.1-0.3c0,0,0,0,0,0c0,0,0,0,0-0.1c0-0.1,0.1-0.3,0.1-0.4      c0-0.1,0.1-0.3,0.1-0.4c0.1-0.1,0.1-0.3,0.2-0.4c0-0.1,0.1-0.3,0.2-0.4c0-0.1,0.1-0.2,0.1-0.3c0,0,0,0,0,0c0,0,0-0.1,0-0.1      c0.1-0.1,0.1-0.3,0.2-0.4c0.1-0.1,0.1-0.3,0.2-0.4c0.1-0.2,0.2-0.3,0.2-0.5c0.1-0.2,0.2-0.3,0.3-0.5c0,0,0-0.1,0.1-0.1      c0,0,0-0.1,0.1-0.1c0.2-0.3,0.4-0.6,0.6-1c0.2-0.2,0.3-0.5,0.5-0.7c0,0,0,0,0,0c0,0,0,0,0,0c0.1-0.2,0.2-0.3,0.4-0.5      c0.1-0.1,0.2-0.3,0.3-0.4c0.1-0.1,0.2-0.2,0.3-0.4c0.1-0.1,0.2-0.2,0.3-0.4c0,0,0,0,0.1,0c0,0,0,0,0,0c0.1-0.1,0.2-0.2,0.3-0.3      c0.1-0.1,0.2-0.2,0.3-0.3c0.1-0.1,0.2-0.2,0.3-0.3c0.1-0.1,0.2-0.2,0.4-0.3c0.1,0,0.1-0.1,0.2-0.1c0,0,0,0,0,0      c0,0,0.1-0.1,0.1-0.1c0.1-0.1,0.2-0.2,0.4-0.3c0.1-0.1,0.2-0.2,0.3-0.2c0.1-0.1,0.2-0.2,0.3-0.2c0.1-0.1,0.2-0.1,0.3-0.2      c0,0,0.1,0,0.1-0.1l103.3-59.6c0.1,0,0.2-0.1,0.3-0.1c0.1-0.1,0.2-0.1,0.3-0.2c0.1-0.1,0.2-0.1,0.3-0.2c0.1-0.1,0.2-0.1,0.3-0.1      c0.1,0,0.2-0.1,0.3-0.1c0,0,0.1,0,0.1,0c0,0,0,0,0,0c0.1,0,0.2-0.1,0.2-0.1c0.1,0,0.2-0.1,0.3-0.1c0.1,0,0.2-0.1,0.3-0.1      c0.1,0,0.2,0,0.4-0.1c0.1,0,0.2,0,0.2,0c0,0,0,0,0,0c0,0,0.1,0,0.1,0c0.1,0,0.3,0,0.4,0c0.1,0,0.3,0,0.4,0c0.2,0,0.3,0,0.5,0.1      c0,0,0,0,0,0s0,0,0,0c0.2,0,0.4,0.1,0.5,0.1c0.2,0.1,0.4,0.2,0.6,0.3l12.3,7.2c-0.4-0.2-0.8-0.4-1.2-0.4c0,0,0,0,0,0      c-0.4-0.1-0.9-0.1-1.3-0.1c0,0,0,0,0,0c-0.5,0-1,0.2-1.5,0.3c0,0,0,0,0,0c-0.5,0.2-1.1,0.4-1.6,0.7l-103.3,59.6      c-0.5,0.3-1.1,0.7-1.6,1.1c0,0,0,0,0,0C972.5,457.1,972,457.6,971.6,458.1z"></path>
				<path class="st7" d="M974.7,455.5l103.3-59.6c4.4-2.6,8-0.5,8,4.6l0.2,72c0,5.1-3.5,11.3-8,13.8L974.9,546c-4.4,2.6-8,0.5-8-4.6      l-0.2-72C966.7,464.3,970.2,458.1,974.7,455.5z"></path>
			</g>
			<g>
				<path class="st1" d="M1025.4,593l0.3-106.3l10.2-5.9l-0.3,106.3c0,5.1-1.1,9.2-3.1,12.3c-1.2,1.8-2.7,3.3-4.4,4.3l-10.2,5.9      C1022.5,606.8,1025.4,601.1,1025.4,593z"></path>
				<polygon class="st1" points="1025.7,486.7 1035.9,480.8 1029.1,476.8 1018.9,482.8     "></polygon>
				<path class="st4" d="M999.5,599.9c10.4,6,19,1.2,19-10.8l0.3-106.3l6.8,3.9l-0.3,106.3c0,16.4-11.7,23-25.9,14.8L999.5,599.9z"></path>
			</g>
		</g>
		<g>
			<path class="st11" d="M960.3,308.9c2.8,5.7,2,16.4,2.9,29.8c11.8,18.4,39.6,2.6,38.7-2.7c0.1-0.1-1.6-20.1-1.3-21.5L960.3,308.9z     "></path>
			<path class="st13" d="M951.8,249c-4.2,7.6-9.7,8.7-9.9,18.7c-0.2,7.9-1.3,51.4,13,61c5,3.3,18.1-4,26.2-10.7     c5.5-4.6,3.6-13.3,6-16.3L975.6,252L951.8,249z"></path>
			<path class="st15" d="M1018.8,316.9c-11.9,20.5-41,31.3-65.6,25.7c-0.3-0.1,4.6-44.5-12.3-66.5c-9.8-30.3,25.5-49.9,50.8-46     C1023.3,234.9,1033.3,291.9,1018.8,316.9z"></path>
		</g>
	</g>
	<g>
		<path class="st27" d="M922.7,374.1c16-35.6,59.6-24.3,41.7,13.9c-8.9,19-26.9,47.9-37.9,67.5c-10.1,18-20.7,18.3-27,13.6    c-6.3-4.6-9.3-14.5,0-33.9C909.8,413.9,913,395.8,922.7,374.1z"></path>
		<g>
			<path class="st11" d="M842,434.3c-11.2-2.3-12.2-3.3-23.6-9.4c-4.3-2.3-6.4-3.5-13.1-4.1c-3.2-0.3-26.6-9.4-30.2-2.2     c-1.3,2.5,14.9,2.7,17.9,6.3c2.4,2.9-16.4-2.9-19.4-1c-3.9,2.6-1.9,4.5-0.7,7.9c2.5,6.5,8.9,10.1,21.1,12.3     c8.9,1.6,10.9,8.2,19.2,8.5c5.3,0.2,9.1-1,14.4-0.8l13.5,1.3l0.7-17.5l-0.5-0.1L842,434.3z"></path>
			<path class="st27" d="M829.7,430c-6.2,2.3-6.4,18.1-1.7,22.9l70.4,18.4c16.9,2.3,23.3-5.9,22.7-14c-0.6-7.9-6.6-17.1-23.4-17.6     L829.7,430z"></path>
		</g>
	</g>
	<g>
		<path class="st29" d="M667.3,421.5c0-12.9,0.7-35.2,14.2-43.3c7.3-4.4,22.1-10.9,32.8-9.8c-2.8-3.1-6.9-9.3-13-10.5    c-7.1,0.4-22.6,6.8-28.1,9.7c-17.6,9.2-17.8,34-17,50.7L667.3,421.5z"></path>
		<g>
			<path class="st30" d="M661.4,401.6c-10,1.2-17,12.6-15.5,25.5c1.5,12.9,10.9,22.4,20.9,21.2c10-1.2,17-12.6,15.5-25.5     C680.8,409.9,671.4,400.4,661.4,401.6z"></path>
			<path class="st29" d="M657.7,405c-20.9,2.4-16.1,43.2,4.7,40.8c8.8-1,14.8-11,13.5-22.2C674.6,412.3,666.5,404,657.7,405z"></path>
		</g>
	</g>
</g>
<polygon class="st23" points="467.5,448.5 450.8,475 448,479.5 450.8,480.6 467.5,487.5 470.3,483 453.7,476.1 470.3,449.7 "></polygon>
<polygon class="st23" points="500.8,467.8 517.5,441.4 520.3,436.9 517.5,435.7 500.8,428.9 498,433.4 514.6,440.2 498,466.7 "></polygon>
<polygon class="st23" points="802.1,290.3 785.4,316.7 782.6,321.2 785.4,322.4 802.1,329.2 804.9,324.7 788.2,317.9 804.9,291.4   "></polygon>
<polygon class="st23" points="835.4,309.6 852,283.1 854.9,278.6 852,277.5 835.4,270.6 832.6,275.1 849.2,281.9 832.6,308.4 "></polygon>
</svg>
